<?xml version="1.0" encoding="UTF-8" standalone="no"?>
<!-- Created with Inkscape (http://www.inkscape.org/) -->

<svg
   width="1280"
   height="640"
   viewBox="0 0 1280 640"
   version="1.1"
   id="svg1"
   inkscape:version="1.4.2 (f4327f4, 2025-05-13)"
   sodipodi:docname="sinfulPlugins-banner.svg"
   inkscape:export-filename="sinfulPlugins-banner.png"
   inkscape:export-xdpi="96"
   inkscape:export-ydpi="96"
   xmlns:inkscape="http://www.inkscape.org/namespaces/inkscape"
   xmlns:sodipodi="http://sodipodi.sourceforge.net/DTD/sodipodi-0.dtd"
   xmlns="http://www.w3.org/2000/svg"
   xmlns:svg="http://www.w3.org/2000/svg">
  <sodipodi:namedview
     id="namedview1"
     pagecolor="#ffffff"
     bordercolor="#000000"
     borderopacity="0.25"
     inkscape:showpageshadow="2"
     inkscape:pageopacity="0.0"
     inkscape:pagecheckerboard="0"
     inkscape:deskcolor="#d1d1d1"
     inkscape:document-units="px"
     inkscape:zoom="0.55322263"
     inkscape:cx="632.65669"
     inkscape:cy="250.35129"
     inkscape:window-width="2560"
     inkscape:window-height="1351"
     inkscape:window-x="2551"
     inkscape:window-y="-9"
     inkscape:window-maximized="1"
     inkscape:current-layer="layer1"
     showguides="false" />
  <defs
     id="defs1">
    <rect
       x="328.487"
       y="161.0481"
       width="688.92799"
       height="343.82492"
       id="rect9" />
    <rect
       x="38.983868"
       y="140.59755"
       width="434.57425"
       height="246.68478"
       id="rect15" />
    <rect
       x="49.70874"
       y="221.88174"
       width="448.28247"
       height="123.81995"
       id="rect14" />
    <rect
       x="74.133255"
       y="113.7562"
       width="425.62711"
       height="287.58588"
       id="rect7" />
    <rect
       x="58.156258"
       y="283.11234"
       width="419.8754"
       height="166.16074"
       id="rect5" />
    <rect
       x="77.328651"
       y="166.16074"
       width="370.02716"
       height="201.31012"
       id="rect4" />
    <rect
       x="51.516331"
       y="154.549"
       width="439.24448"
       height="221.42982"
       id="rect3" />
    <rect
       x="30.036749"
       y="126.53779"
       width="472.91901"
       height="285.02957"
       id="rect8" />
    <rect
       x="97.779198"
       y="196.19748"
       width="571.97638"
       height="214.09171"
       id="rect2" />
  </defs>
  <g
     inkscape:label="Sinful Plugins Icon"
     inkscape:groupmode="layer"
     id="layer1"
     style="display:inline">
    <rect
       style="display:inline;fill:#000000;stroke-width:0"
       id="rect1"
       width="1280"
       height="640"
       x="0"
       y="0" />
    <path
       d="m 98.738178,285.93268 -4.279375,1.14665 v -33.32726 l 14.005237,-3.75269 v 3.76066 l 16.08008,-4.30864 5.70584,-7.36439 v -6.61359 l -35.791159,9.59021 v -26.71368 l 13.875559,-17.72317 35.92083,-9.62496 v 17.89557 l -14.00523,3.75269 v -3.89034 l -16.08009,4.30865 -5.70583,7.36438 v 6.74326 l 35.79115,-9.59021 v 26.71368 l -14.00523,17.75793 -25.41691,6.81043 v 7.13229 l -2.85291,0.76444 v 5.44648 l -3.241963,0.86868 z m 14.134912,-34.52114 -3.11227,0.83393 v -2.59356 l 3.11227,-0.83393 z m 0,-26.58402 -3.11227,0.83394 v -5.05745 l 3.11227,-4.07588 z m 53.56777,42.96428 -4.27938,1.14666 v -82.73461 l 14.13491,-3.78744 v 67.30292 l -3.76066,1.00766 v 7.13229 l -2.85292,0.76443 v 5.31681 l -3.24195,0.86868 z m 9.85553,-91.08123 -14.13491,3.78744 v -17.24718 l 14.13491,-3.78744 z m 4.27938,-1.14666 -3.11228,0.83394 v -17.24718 l 3.11228,-0.83394 z m 0,73.00876 -3.11228,0.83394 v -67.30292 l 3.11228,-0.83394 z m 23.09358,9.24379 -4.27937,1.14665 V 176.2285 l 14.13491,-3.78744 v 7.52132 l 20.35946,-14.2734 15.30201,11.20185 v 39.0331 l -3.63099,0.97292 v 7.26196 l -2.98259,0.79918 v 5.18713 l -3.24195,0.86869 v 3.11227 l -4.1497,1.1119 v -48.88864 l -4.40906,-3.22765 -17.24718,12.1427 v 44.47958 l -3.63099,0.97292 v 7.13229 l -2.98259,0.79919 v 5.31681 l -3.24196,0.86868 z m 11.15232,-80.01705 v -5.70582 l 2.9826,-0.79919 v 4.27937 z m 2.9826,60.79791 -2.9826,0.79919 v -43.57185 l 2.9826,-2.22562 z m 53.17894,1.18244 -4.27938,1.14666 v -91.42305 l 2.07485,-2.76048 13.22716,-16.90105 q 17.24719,3.02964 34.49437,5.79992 v 16.20976 l -14.00523,3.75269 v -6.87294 l -17.37686,-2.86521 -4.40906,5.59046 v 24.50916 q 7.26198,-2.85359 9.07747,-9.17556 1.81549,-6.45165 1.81549,-14.10266 v 1.29678 q 0,6.22455 1.68582,11.73802 1.68581,5.3838 9.07746,4.44065 -7.39165,3.018 -9.07746,9.4349 -1.68582,6.41692 -1.68582,12.51179 v 1.29678 q 0,-7.52133 -1.81549,-12.87039 -1.81549,-5.47873 -9.07747,-4.57031 v 45.77636 l -3.63098,0.97292 v 7.13229 l -2.85292,0.76443 v 5.31681 l -3.24195,0.86868 z m 14.13491,-19.21913 -3.11228,0.83394 v -44.47958 q 1.94517,-0.13218 3.11228,0.46284 z m -3.11228,-46.2392 v -22.82336 l 3.11228,-3.94621 v 24.63884 q -1.16711,1.22047 -3.11228,2.13073 z m 86.63567,39.29087 -4.27937,1.14664 v -22.95302 l -20.35946,14.27342 q -7.65101,-5.7306 -15.30202,-11.20185 v -53.29768 l 14.00524,-3.7527 v 47.46217 l 4.40905,3.22766 17.24719,-12.01302 v -44.47958 l 14.13491,-3.78743 v 67.30292 l -3.63099,0.97292 v 7.13229 l -2.98259,0.79918 v 5.31681 l -3.24196,0.86868 z m -21.52656,-26.78119 -3.11227,-2.40801 v -46.94346 l 3.11227,-0.83393 z m 54.47568,17.9525 -4.27937,1.14665 V 100.24262 l 14.00523,-3.752683 v 90.255933 l -3.63099,0.97292 v 7.13229 l -2.85291,0.76444 v 5.31681 l -3.24196,0.86868 z m 14.13491,-19.21913 -3.11227,0.83393 V 96.142467 l 3.11227,-0.83393 z M 63.654828,415.5448 59.375452,416.69146 V 311.00383 l 14.13491,-3.78744 v 7.52133 l 20.359459,-14.27341 15.302019,11.20185 v 39.55181 l -34.494375,24.2854 -1.167103,-0.85438 v 22.69366 l -3.630986,0.97292 v 7.26198 l -2.982596,0.79918 v 5.18712 l -3.241952,0.86868 z M 74.807142,312.57475 v -5.70583 l 2.982596,-0.79918 v 4.27938 z m 2.982596,83.62125 -2.982596,0.79918 V 376.7654 l 2.982596,-2.22564 z m 0,-39.94085 -2.982596,-2.44277 v -23.21237 l 2.982596,-2.22564 z m 0,1.68582 17.376863,-12.17745 v -24.50916 l -4.409054,-3.35733 -17.247185,12.1427 v 24.63883 z m 52.919492,16.68364 -4.27937,1.14666 V 270.08364 l 14.00523,-3.7527 v 90.25594 l -3.63099,0.97294 v 7.13229 l -2.85291,0.76443 v 5.3168 l -3.24196,0.86868 z m 14.13491,-19.21913 -3.11227,0.83393 v -90.25594 l 3.11227,-0.83393 z m 57.977,-0.1032 -4.27938,1.14666 v -22.95302 l -20.35946,14.27341 q -7.651,-5.7306 -15.30201,-11.20185 v -53.29769 l 14.00523,-3.75268 v 47.46217 l 4.40906,3.22766 17.24718,-12.01302 v -44.47958 l 14.13491,-3.78744 v 67.30292 l -3.63098,0.97292 v 7.1323 l -2.9826,0.79919 v 5.3168 l -3.24195,0.86867 z m -21.52656,-26.78117 -3.11228,-2.40802 v -46.94346 l 3.11228,-0.83393 z m 53.43825,41.18348 -4.14969,1.11191 v -45.38733 l 14.00523,-3.75268 v 6.87293 l 17.24718,2.89996 4.40906,-5.59044 v -2.85292 l -1.16711,1.47982 -34.49436,-5.79992 v -39.94085 l 34.49436,-24.15572 1.29679,0.94932 14.00523,-3.75269 v 75.99135 l -15.30202,19.66153 q -4.40905,-0.89345 -20.48913,-3.45774 v 7.39166 l -3.63099,0.97292 v 7.39165 l -2.98259,0.79918 v 5.18712 l -3.24196,0.86868 z m 14.26459,-19.38355 -3.11227,0.83393 v -5.83551 l 3.11227,0.59253 z m 0,-45.12797 -3.11227,-0.59253 V 284.7598 l 3.11227,-2.26039 z m 0,22.82334 -3.11227,-0.46285 v -4.92775 l 3.11227,0.46285 z m 12.83813,-19.39037 4.40906,-5.59046 v -27.62143 l -4.40906,-3.35733 -17.24718,12.1427 v 21.65625 z m 41.63739,19.70667 -4.27937,1.14666 v -82.73461 l 14.13491,-3.78744 v 67.30292 l -3.76067,1.00767 v 7.1323 l -2.85292,0.76444 v 5.3168 l -3.24195,0.86867 z m 9.85554,-91.08123 -14.13491,3.78744 v -17.24718 l 14.13491,-3.78744 z m 4.27937,-1.14665 -3.11227,0.83393 v -17.24718 l 3.11227,-0.83393 z m 0,73.00876 -3.11227,0.83393 V 242.6446 l 3.11227,-0.83393 z m 23.09358,9.24378 -4.27938,1.14666 v -82.73461 l 14.13491,-3.78744 v 7.52133 l 20.35946,-14.27341 15.30201,11.20185 v 39.0331 l -3.63098,0.97292 v 7.26197 l -2.9826,0.79918 v 5.18713 l -3.24195,0.86868 v 3.11228 l -4.1497,1.11191 v -48.88863 l -4.40906,-3.22766 -17.24718,12.1427 v 44.47958 l -3.63099,0.97292 v 7.13229 l -2.98259,0.79918 v 5.3168 l -3.24195,0.86868 z m 11.15231,-80.01703 v -5.70583 l 2.9826,-0.79919 v 4.27937 z m 2.9826,60.7979 -2.9826,0.79919 v -43.57182 l 2.9826,-2.22565 z m 52.2712,1.42567 -4.27937,1.14666 V 268.3833 l 14.00523,-3.75268 v 3.76065 l 16.08008,-4.30864 5.70584,-7.36439 v -6.61359 l -35.79115,9.59021 v -26.71368 l 13.87555,-17.72317 35.92083,-9.62496 v 17.89557 l -14.00523,3.75269 v -3.89034 l -16.08008,4.30865 -5.70584,7.36438 v 6.74326 l 35.79115,-9.59021 v 26.71369 l -14.00523,17.75792 -25.41691,6.81044 v 7.1323 l -2.85291,0.76444 v 5.44647 l -3.24196,0.86868 z m 14.13492,-34.52114 -3.11228,0.83394 v -2.59357 l 3.11228,-0.83393 z m 0,-26.58401 -3.11228,0.83393 v -5.05744 l 3.11228,-4.07589 z"
       id="text8"
       style="font-size:96px;line-height:0.75;font-family:Hypergame;-inkscape-font-specification:'Hypergame, Normal';text-align:center;letter-spacing:5px;word-spacing:0px;text-anchor:middle;white-space:pre;display:none;fill:#ffffff;stroke-width:0"
       aria-label="sinful&#10;plugins" />
    <path
       id="text1"
       style="font-size:96px;line-height:0.75;font-family:Elisa;-inkscape-font-specification:'Elisa, Normal';text-align:center;letter-spacing:5px;word-spacing:0px;text-anchor:middle;white-space:pre;display:none;fill:#ffffff;fill-opacity:1;stroke-width:0"
       d="m 499.07899,181.29534 v 23.49949 l 23.49949,-6.29666 v -23.4995 z m 215.51062,-57.7459 c -9.69178,2.5969 -17.99112,8.27296 -24.89485,17.02654 -6.77097,8.58523 -10.22314,17.73982 -10.35598,27.46722 l -11.15015,2.98766 v 23.49949 l 11.15015,-2.98767 v 80.85447 l 23.49949,-6.29668 v -80.85446 l 45.22396,-12.11771 v 79.4591 l 31.66277,-8.48402 c 18.05592,-4.83808 33.78915,-15.09285 47.19832,-30.76736 v 18.12059 l 23.49948,-6.29665 v -102.9586 l -23.49948,6.29667 v 32.26395 c 0,13.01087 -4.64737,25.4054 -13.94086,37.18907 -9.16073,11.61534 -20.24658,19.16658 -33.25746,22.65284 l -8.16328,2.18734 v -79.45911 l -15.01664,4.02371 -8.48285,2.27297 -45.22396,12.11772 c 0.13284,-3.22193 1.3279,-6.26208 3.58489,-9.12384 2.257,-2.86175 4.98012,-4.71997 8.16645,-5.57374 l 14.13703,-3.788 V 119.76145 Z M 876.92499,80.051803 V 219.45407 l 23.4995,-6.29666 V 73.755143 Z m -377.846,136.291847 v 0.19935 l -126.07523,33.78176 v 22.70215 c 0,11.28493 3.98165,19.91224 11.9475,25.8764 8.0986,5.9286 17.85619,7.36229 29.2739,4.30293 l 37.44035,-10.03212 c -0.13268,4.6823 -1.92388,9.14391 -5.37574,13.38794 -3.45187,4.11126 -7.50326,6.79138 -12.15,8.03646 l -57.15247,15.31396 v 23.49948 L 434.13977,338.098 c 11.28493,-3.02377 20.97913,-9.60613 29.07773,-19.742 8.09861,-10.26863 12.14684,-21.11095 12.14684,-32.52866 v -22.5028 l -61.13918,16.3822 c -4.77951,1.28067 -8.89431,0.78866 -12.34617,-1.47275 -3.3191,-2.42976 -5.11021,-5.99807 -5.37574,-10.70642 l 102.57574,-27.48508 v 80.65512 l 23.49949,-6.29667 V 210.04698 Z m 50.40035,-13.50474 v 104.35395 l 23.4995,-6.29667 v -80.85445 l 27.8817,-7.47088 c 7.56756,-2.02772 14.00603,-1.02978 19.31661,2.99059 5.44332,3.852 8.16327,9.56169 8.16327,17.12925 v 53.3714 l 23.49949,-6.29667 v -53.3714 c 0,-14.07299 -4.97706,-24.75408 -14.93437,-32.04334 -9.9573,-7.28925 -21.97201,-9.05018 -36.045,-5.27932 z M 412.44379,353.86874 v 139.40228 l 23.49633,-6.29584 V 347.5729 Z m 305.53769,-81.86857 v 23.49949 l 23.4995,-6.29668 v -23.4995 z M 285.77055,422.85905 v 143.38581 l 23.49633,-6.29583 v -92.40328 c 0,-7.56755 2.65654,-14.71784 7.9671,-21.45137 5.44333,-6.90184 11.94839,-11.368 19.51594,-13.39572 l 27.88172,-7.47089 v 29.87191 c 0,7.56755 -2.72312,14.7357 -8.16645,21.5048 -5.31055,6.73352 -11.74905,11.18176 -19.3166,13.34232 l -14.14019,3.78884 v 23.4995 l 14.33953,-3.84226 c 9.16073,-2.58744 17.59004,-7.16971 25.29035,-13.74698 7.83308,-6.61284 14.00845,-14.44287 18.52242,-23.48547 4.64674,-9.07817 6.97044,-18.19669 6.97044,-27.3574 v -53.37141 l -51.38122,13.76756 c -9.9573,2.66804 -19.11891,7.84601 -27.48304,15.5305 v -8.16645 z M 462.6448,375.46573 v 102.95861 l 31.66279,-8.48402 c 18.0559,-4.83807 33.78913,-15.09284 47.19831,-30.76734 v 18.1206 l 23.49949,-6.29669 v -102.9586 l -23.49949,6.29668 v 32.26395 c 0,13.0109 -4.64738,25.40542 -13.94086,37.18908 -9.16072,11.61531 -20.24657,19.16656 -33.25745,22.65282 l -8.1633,2.18736 v -79.4591 z m 179.24731,-48.02917 c -14.60406,4.04599 -27.08476,12.63661 -37.44035,25.767 -10.22283,13.09479 -15.33304,26.87504 -15.33304,41.34632 v 51.38122 l 51.37804,-13.7667 c 9.55902,-2.56133 18.38776,-7.45041 26.48636,-14.66545 -1.8587,8.99493 -6.1732,17.12207 -12.94417,24.37967 -6.77097,7.39036 -14.60431,12.27582 -23.49949,14.65928 l -278.61469,74.65459 v 23.49949 l 278.61469,-74.65459 c 16.86102,-4.5179 31.19942,-14.33235 43.01542,-29.44719 11.94876,-15.01768 17.92441,-30.89382 17.92441,-47.62209 v -65.23663 l 26.50219,-7.16134 v 80.83231 l 23.4995,-6.29668 V 300.75182 l -14.23512,3.8143 -9.26438,2.48239 -26.50219,7.10124 -23.49949,6.29666 z m 126.48973,-33.89282 v 104.35395 l 23.49949,-6.29665 v -80.85447 l 27.88171,-7.47089 c 7.56755,-2.02771 14.00605,-1.02978 19.3166,2.99057 5.44333,3.85204 8.16645,9.56086 8.16645,17.12841 v 53.37141 l 14.9312,-4.0008 8.56829,-2.29586 82.26245,-22.04216 c 11.28494,-3.02381 20.97597,-9.60532 29.07458,-19.74119 8.09861,-10.26861 12.14684,-21.11091 12.14684,-32.52863 v -22.50282 l -61.13601,16.38135 c -4.77952,1.28066 -8.89432,0.78866 -12.34618,-1.47275 -3.31911,-2.42975 -5.11337,-5.9972 -5.37891,-10.70555 l 74.8807,-20.06422 v -23.4995 l -98.38019,26.36089 v 22.70214 c 0,11.28494 3.98481,19.91141 11.95066,25.87558 8.09861,5.92859 17.85619,7.36227 29.27392,4.3029 l 37.44034,-10.03211 c -0.13284,4.68233 -1.92704,9.14474 -5.37891,13.38877 -3.45186,4.11125 -7.50009,6.79057 -12.14684,8.03565 l -82.26245,22.04216 v -29.87193 c 0,-14.07299 -4.98025,-24.75323 -14.93755,-32.0425 -9.95731,-7.28925 -21.97201,-9.05014 -36.04499,-5.2793 z M 667.9798,344.0851 v 29.73269 c 0,7.56755 -2.71997,14.80143 -8.16328,21.70328 -5.31057,6.73353 -11.75221,11.11613 -19.31976,13.14384 l -27.87855,7.47004 v -27.88172 c 0,-8.09861 2.85308,-15.7644 8.56194,-23.00295 5.70887,-7.23853 12.61335,-11.94486 20.71196,-14.11488 z" />
    <path
       id="text1-8"
       style="font-size:96px;line-height:0.75;font-family:Elisa;-inkscape-font-specification:'Elisa, Normal';text-align:center;letter-spacing:5px;word-spacing:0px;text-anchor:middle;white-space:pre;display:none;fill:#ffffff;fill-opacity:1;stroke-width:0"
       d="m 519.76795,201.6589 v 20.04948 l 20.04947,-5.37224 v -20.04948 z m 183.87098,-49.26808 c -8.2689,2.21563 -15.3498,7.05839 -21.23997,14.52683 -5.77692,7.32481 -8.72226,15.13539 -8.8356,23.43469 l -9.51317,2.54903 v 20.04948 l 9.51317,-2.54905 v 68.98405 l 20.04947,-5.37226 v -68.98402 l 38.58452,-10.33867 v 67.79351 l 27.01429,-7.23845 c 15.40508,-4.1278 28.82848,-12.87705 40.26901,-26.25034 v 15.46027 l 20.04948,-5.37223 v -87.84299 l -20.04948,5.37224 v 27.52719 c 0,11.10072 -3.96508,21.67557 -11.89417,31.72925 -7.81582,9.91007 -17.27412,16.35269 -28.37484,19.32713 l -6.96482,1.86621 v -67.79352 l -12.81201,3.43298 -7.23746,1.93926 -38.58452,10.33869 c 0.11334,-2.74891 1.13294,-5.34273 3.05858,-7.78434 1.92565,-2.44161 4.24898,-4.02703 6.96752,-4.75544 l 12.06154,-3.23189 v -20.04946 z m 138.50252,-37.11164 v 118.93628 l 20.04949,-5.37225 V 109.90695 Z m -322.3735,116.2825 v 0.17008 l -107.56581,28.82219 v 19.3692 c 0,9.62815 3.39709,16.98887 10.19345,22.07741 6.90962,5.05821 15.23467,6.28142 24.97613,3.67121 l 31.94363,-8.55928 c -0.11319,3.99489 -1.64142,7.80147 -4.58649,11.42243 -2.94511,3.50768 -6.4017,5.79431 -10.36624,6.8566 l -48.76178,13.06569 v 20.04945 l 48.76178,-13.06567 c 9.62815,-2.57984 17.89913,-8.19582 24.80876,-16.84363 6.90963,-8.76107 10.36353,-18.0116 10.36353,-27.75305 v -19.1991 l -52.16319,13.97708 c -4.07782,1.09266 -7.58852,0.67288 -10.53361,-1.25652 -2.83181,-2.07304 -4.35996,-5.11749 -4.5865,-9.13459 l 87.51634,-23.44994 v 68.81395 l 20.04947,-5.37224 v -89.03349 z m 43.00096,-11.52208 v 89.0335 l 20.04946,-5.37225 v -68.984 l 23.78833,-6.37405 c 6.45656,-1.73002 11.94977,-0.8786 16.48069,2.55153 4.64418,3.28648 6.9648,8.15791 6.9648,14.61446 v 45.53583 l 20.04947,-5.37226 v -45.5358 c 0,-12.0069 -4.24636,-21.11986 -12.74181,-27.33897 -8.49545,-6.21909 -18.74625,-7.72151 -30.75315,-4.50425 z M 445.85188,348.89638 v 118.93629 l 20.04677,-5.37153 V 343.52485 Z m 260.68095,-69.84924 v 20.04946 l 20.04948,-5.37225 V 273.67488 Z M 337.77584,407.75806 v 122.33499 l 20.04679,-5.37151 v -78.83733 c 0,-6.45654 2.26653,-12.55707 6.79742,-18.30204 4.64419,-5.88857 10.19422,-9.69904 16.65075,-11.42906 l 23.78834,-6.37409 v 25.48636 c 0,6.45653 -2.32333,12.5723 -6.9675,18.34763 -4.53091,5.74495 -10.02415,9.54013 -16.48069,11.38349 l -12.06424,3.2326 v 20.04947 l 12.23431,-3.27815 c 7.81582,-2.20758 15.0076,-6.11712 21.57741,-11.72877 6.68309,-5.64198 11.95184,-12.32247 15.80311,-20.03751 3.96454,-7.74538 5.94709,-15.52518 5.94709,-23.34099 v -45.53583 l -43.83783,11.74631 c -8.49544,2.27634 -16.31202,6.69412 -23.44817,13.25043 v -6.96751 z m 150.90692,-40.43539 v 87.843 l 27.01428,-7.23844 c 15.40508,-4.12778 28.82847,-12.87703 40.26902,-26.25032 v 15.46027 l 20.04947,-5.37228 v -87.84298 l -20.04947,5.37225 v 27.52719 c 0,11.10075 -3.96508,21.6756 -11.89416,31.72928 -7.81582,9.91003 -17.27414,16.35267 -28.37486,19.3271 l -6.96482,1.86623 v -67.79352 z m 152.93157,-40.97789 c -12.46001,3.45199 -23.10838,10.78141 -31.94364,21.98408 -8.72199,11.17231 -13.08196,22.92947 -13.08196,35.27616 v 43.83783 l 43.83511,-11.74557 c 8.15562,-2.1853 15.6882,-6.3566 22.59782,-12.51237 -1.58582,7.67435 -5.26689,14.60833 -11.04379,20.80042 -5.77692,6.30536 -12.46022,10.47358 -20.04948,12.50711 L 394.2178,500.1868 v 20.04946 L 631.92839,456.5419 c 14.38561,-3.85462 26.61895,-12.22818 36.70023,-25.12398 10.19453,-12.81288 15.29288,-26.35823 15.29288,-40.63058 v -55.65907 l 22.61133,-6.10997 v 68.96512 l 20.04948,-5.37225 v -89.03348 l -12.14523,3.25431 -7.90425,2.11794 -22.61133,6.05869 -20.04948,5.37223 z M 749.5338,297.42784 v 89.0335 l 20.04946,-5.37221 v -68.98404 l 23.78833,-6.37407 c 6.45654,-1.73001 11.94979,-0.87861 16.48069,2.55152 4.64418,3.2865 6.9675,8.1572 6.9675,14.61375 v 45.53582 l 12.73911,-3.41344 7.31037,-1.9588 70.18532,-18.80609 c 9.62818,-2.57988 17.89641,-8.19515 24.80612,-16.84294 6.90961,-8.76105 10.36346,-18.01157 10.36346,-27.75303 v -19.19912 l -52.16049,13.97636 c -4.07783,1.09264 -7.58851,0.67288 -10.53361,-1.25653 -2.83182,-2.07303 -4.36266,-5.11673 -4.58921,-9.13384 l 63.88728,-17.11854 v -20.04947 l -83.93675,22.49077 v 19.36918 c 0,9.62817 3.39979,16.98818 10.19615,22.07674 6.90963,5.05819 15.23468,6.28139 24.97614,3.67117 l 31.94362,-8.55927 c -0.11328,3.9949 -1.64411,7.80218 -4.58926,11.42312 -2.94502,3.50767 -6.39899,5.79363 -10.36345,6.85593 l -70.18532,18.80609 v -25.48635 c 0,-12.00691 -4.24909,-21.11916 -12.74453,-27.33827 -8.49545,-6.2191 -18.74624,-7.72146 -30.75314,-4.50422 z m -85.66178,43.12127 v 25.36756 c 0,6.45655 -2.32065,12.6284 -6.96481,18.51698 -4.53091,5.74495 -10.02683,9.48414 -16.48337,11.21415 l -23.78564,6.37334 V 378.2328 c 0,-6.90962 2.43421,-13.44999 7.30495,-19.62583 4.87073,-6.17582 10.76155,-10.19121 17.67118,-12.04264 z" />
    <path
       id="text2"
       style="font-size:96.3456px;line-height:0.75;font-family:'Space Crusaders';-inkscape-font-specification:'Space Crusaders, Normal';text-align:center;letter-spacing:0px;word-spacing:0px;text-anchor:middle;white-space:pre;fill:#ffffff;stroke-width:0"
       d="m 425.75949,262.34084 c -23.51832,6.30172 -35.27688,19.94002 -35.27688,40.91835 0,21.35462 11.75856,28.88352 35.27688,22.5818 l 21.16671,-5.6716 c 4.70367,-1.26035 7.05656,-0.80887 7.05656,1.35481 0,2.53997 -2.35289,4.43846 -7.05656,5.69881 l -42.33343,11.34321 -14.11016,32.00407 56.44359,-15.12401 c 23.51832,-6.30172 35.2769,-20.12908 35.2769,-41.4837 0,-20.97833 -11.75858,-28.31817 -35.2769,-22.01645 l -21.16671,5.6716 c -4.70366,1.26034 -7.05361,0.61903 -7.05361,-1.92094 0,-2.16369 2.34995,-3.87527 7.05361,-5.13561 l 65.8289,-17.6388 v 70.5567 l 28.22035,-7.56162 v -98.77704 l -9.27985,2.48653 -18.9405,5.07509 z m 113.17135,-30.32417 v 98.77704 l 28.22033,-7.56161 v -49.38998 l 35.27689,39.93756 28.22327,-7.5624 v -98.77704 l -28.22327,7.5624 v 49.38706 l -35.27689,-39.93464 z m 110.83966,-29.6994 v 98.77704 l 28.22327,-7.5624 v -35.27689 l 28.22326,-7.5624 14.11018,-32.00407 -42.33344,11.34321 v -7.05655 l 48.4702,-12.98755 v 21.16672 c 0,32.92564 14.11147,45.60882 42.33343,38.04677 28.22199,-7.56206 42.33345,-27.80755 42.33345,-60.73319 V 159.0809 l -28.22327,7.5624 v 49.38706 c 0,14.11099 -4.70284,22.42683 -14.11018,24.94752 -9.40733,2.52069 -14.11016,-3.27491 -14.11016,-17.3859 v -49.38706 l -2.50743,0.67186 -25.71584,6.89054 z M 826.01726,155.0921 v 98.77704 l 49.39003,-13.23402 14.1101,-32.00406 -35.27686,9.4524 V 147.52969 Z M 340.00001,393.69328 v 28.22033 l 49.38998,-13.23401 c 4.70367,-1.26034 7.05363,0.46288 7.05363,5.16654 0,4.70366 -2.34996,7.6833 -7.05363,8.94364 l -49.38998,13.23401 v 56.44652 l 28.22327,-7.56241 v -28.22327 l 21.16671,-5.6716 c 23.51832,-6.30172 35.2769,-21.21099 35.2769,-44.7293 0,-23.51831 -11.75858,-32.12618 -35.2769,-25.82446 z m 93.97894,-25.18159 v 98.77703 l 49.38998,-13.234 14.11018,-32.00408 -35.27689,9.45241 v -70.55376 z m 64.69821,-17.33583 v 49.38704 c 0,32.92564 14.11147,45.60883 42.33345,38.04678 28.22197,-7.56206 42.33343,-27.80756 42.33343,-60.7332 v -49.38704 l -28.22034,7.56162 v 49.38704 c 0,14.11099 -4.70577,22.42762 -14.11309,24.94831 -9.40733,2.52068 -14.11018,-3.27492 -14.11018,-17.38591 V 343.61346 Z M 635.90639,314.4054 c -28.22198,7.56206 -42.33051,27.80383 -42.33051,60.72947 0,32.92564 14.10853,45.60962 42.33051,38.04756 l 49.38998,-13.23401 v -49.38999 l -28.22327,7.56241 v 21.16672 l -21.16671,5.6716 c -9.40733,2.52069 -14.11017,-3.27492 -14.11017,-17.38591 0,-14.11098 4.70284,-22.42683 14.11017,-24.94752 l 62.86451,-16.8445 v 70.5567 l 28.22327,-7.5624 V 289.9985 l -9.8452,2.63802 -18.37807,4.92438 z m 110.20694,-29.52986 v 98.77703 l 28.22327,-7.5624 v -49.38999 l 35.2769,39.93757 6.81048,-1.82486 21.41278,-5.73754 66.88633,-17.92214 c 23.5183,-6.30171 35.2769,-20.13201 35.2769,-41.48663 0,-20.97833 -11.7586,-28.31523 -35.2769,-22.01352 l -21.1667,5.6716 c -4.7037,1.26035 -7.0565,0.61982 -7.0565,-1.92016 0,-2.16368 2.3528,-3.87604 7.0565,-5.13639 l 38.8037,-10.39742 14.1131,-32.00192 -52.9168,14.17901 c -23.51831,6.30171 -35.27687,19.94001 -35.27687,40.91834 0,21.35462 11.75856,28.88059 35.27687,22.57888 l 21.1667,-5.6716 c 4.7037,-1.26035 7.0537,-0.80811 7.0537,1.35557 0,2.53997 -2.35,4.44062 -7.0537,5.70097 l -66.88633,17.92214 v -70.55376 l -28.22326,7.5624 v 49.38704 l -35.2769,-39.93462 z" />
  </g>
  <g
     inkscape:label="Other Plugin Icons"
     inkscape:groupmode="layer"
     id="g7"
     style="display:none">
    <rect
       style="display:inline;fill:#000000;stroke-width:0"
       id="rect6"
       width="1280"
       height="640"
       x="0"
       y="0"
       rx="320" />
    <path
       d="m 94.119983,285.2 7.280007,-5.44 v -13.68 l -5.040007,-3.76 h -16.32 v 6.48 H 57.959982 v -41.76 h -14 c -4.88,3.6 -2.48,1.76 -7.28,5.44 v 47.28 l 7.28,5.44 z m 69.599967,0 7.28,-5.52 V 268.8 l -3.68,-2.72 h -14.08 v 2.72 l -25.68,0.08 -2.8,-4.64 h 24.88 v -10.88 l -7.28,-5.44 h -14.8 l -2.8,-4.56 h 28.48 v 2.72 h 14.08 l 3.68,-2.72 v -10.88 l -7.28,-5.44 h -50.24 l -7.28,5.44 v 47.28 l 7.28,5.44 z m 76.32006,-0.24 0.32,-5.36 c -12.72,-15.68 -6.4,-7.84 -19.04,-23.6 l 19.2,-23.76 -0.32,-5.44 h -21.6 l -10.48,12.96 -10.48,-12.96 h -21.52 l -0.32,5.44 19.2,23.76 -19.04,23.6 0.32,5.36 h 21.6 l 10.24,-12.72 10.32,12.72 z m 19.27996,0 7.28,-5.36 v -52.8 h -14 l -7.28,5.44 v 52.72 z m 69.60002,0 7.28,-5.36 v -13.76 c -3.36,-2.48 -1.68,-1.2 -5.04,-3.76 h -16.32 v 6.56 h -22.08 v -25.52 l 22.08,0.08 v 6.48 h 14.08 l 7.28,-5.44 v -11.92 l -7.28,-5.52 h -50.24 l -7.28,5.44 v 47.36 l 7.28,5.36 z m 69.52007,0 7.28,-5.44 v -47.2 l -7.28,-5.52 h -50.16 l -7.28,5.44 v 47.28 c 4.8,3.68 2.4,1.84 7.28,5.44 z m -14.08,-16.32 h -22.08 V 243.2 h 22.08 z m 83.67996,16.32 7.28,-5.36 v -52.8 h -14 l -7.36,5.44 v 22.8 l -24.48,-28.24 h -11.68 l -7.28,5.44 v 52.72 h 14 l 7.28,-5.44 v -19.76 l 21.92,25.2 z"
       id="text14"
       style="font-size:80px;line-height:0.75;font-family:'SPACE NOVA';-inkscape-font-specification:'SPACE NOVA, Normal';text-align:center;letter-spacing:0px;word-spacing:0px;text-anchor:middle;white-space:pre;display:inline;fill:#ffffff;stroke-width:0"
       aria-label="Lexicon" />
  </g>
</svg>
