<?xml version="1.0" encoding="UTF-8" standalone="no"?>
<!-- Created with Inkscape (http://www.inkscape.org/) -->

<svg
   width="512"
   height="512"
   viewBox="0 0 512 512"
   version="1.1"
   id="svg1"
   inkscape:version="1.4.2 (f4327f4, 2025-05-13)"
   sodipodi:docname="sinfulPlugins.svg"
   inkscape:export-filename="sinfulPlugins.png"
   inkscape:export-xdpi="96"
   inkscape:export-ydpi="96"
   xmlns:inkscape="http://www.inkscape.org/namespaces/inkscape"
   xmlns:sodipodi="http://sodipodi.sourceforge.net/DTD/sodipodi-0.dtd"
   xmlns="http://www.w3.org/2000/svg"
   xmlns:svg="http://www.w3.org/2000/svg">
  <sodipodi:namedview
     id="namedview1"
     pagecolor="#ffffff"
     bordercolor="#000000"
     borderopacity="0.25"
     inkscape:showpageshadow="2"
     inkscape:pageopacity="0.0"
     inkscape:pagecheckerboard="0"
     inkscape:deskcolor="#d1d1d1"
     inkscape:document-units="px"
     inkscape:zoom="1.5647499"
     inkscape:cx="179.58141"
     inkscape:cy="253.39512"
     inkscape:window-width="2560"
     inkscape:window-height="1351"
     inkscape:window-x="2551"
     inkscape:window-y="-9"
     inkscape:window-maximized="1"
     inkscape:current-layer="layer1" />
  <defs
     id="defs1">
    <rect
       x="58.156257"
       y="283.11233"
       width="419.87539"
       height="166.16073"
       id="rect5" />
    <rect
       x="77.328649"
       y="166.16073"
       width="370.02717"
       height="201.31012"
       id="rect4" />
    <rect
       x="51.516329"
       y="154.54899"
       width="439.24449"
       height="221.42983"
       id="rect3" />
    <rect
       x="30.036748"
       y="126.53779"
       width="472.91901"
       height="285.02956"
       id="rect8" />
    <rect
       x="97.7792"
       y="196.19748"
       width="571.97637"
       height="214.09171"
       id="rect2" />
  </defs>
  <g
     inkscape:label="Layer 1"
     inkscape:groupmode="layer"
     id="layer1">
    <rect
       style="display:inline;fill:#000000;stroke-width:0"
       id="rect1"
       width="512"
       height="512"
       x="0"
       y="0"
       rx="128" />
    <path
       d="m 98.738178,285.93268 -4.279375,1.14665 v -33.32726 l 14.005237,-3.75269 v 3.76066 l 16.08008,-4.30864 5.70584,-7.36439 v -6.61359 l -35.791159,9.59021 v -26.71368 l 13.875559,-17.72317 35.92083,-9.62496 v 17.89557 l -14.00523,3.75269 v -3.89034 l -16.08009,4.30865 -5.70583,7.36438 v 6.74326 l 35.79115,-9.59021 v 26.71368 l -14.00523,17.75793 -25.41691,6.81043 v 7.13229 l -2.85291,0.76444 v 5.44648 l -3.241963,0.86868 z m 14.134912,-34.52114 -3.11227,0.83393 v -2.59356 l 3.11227,-0.83393 z m 0,-26.58402 -3.11227,0.83394 v -5.05745 l 3.11227,-4.07588 z m 53.56777,42.96428 -4.27938,1.14666 v -82.73461 l 14.13491,-3.78744 v 67.30292 l -3.76066,1.00766 v 7.13229 l -2.85292,0.76443 v 5.31681 l -3.24195,0.86868 z m 9.85553,-91.08123 -14.13491,3.78744 v -17.24718 l 14.13491,-3.78744 z m 4.27938,-1.14666 -3.11228,0.83394 v -17.24718 l 3.11228,-0.83394 z m 0,73.00876 -3.11228,0.83394 v -67.30292 l 3.11228,-0.83394 z m 23.09358,9.24379 -4.27937,1.14665 V 176.2285 l 14.13491,-3.78744 v 7.52132 l 20.35946,-14.2734 15.30201,11.20185 v 39.0331 l -3.63099,0.97292 v 7.26196 l -2.98259,0.79918 v 5.18713 l -3.24195,0.86869 v 3.11227 l -4.1497,1.1119 v -48.88864 l -4.40906,-3.22765 -17.24718,12.1427 v 44.47958 l -3.63099,0.97292 v 7.13229 l -2.98259,0.79919 v 5.31681 l -3.24196,0.86868 z m 11.15232,-80.01705 v -5.70582 l 2.9826,-0.79919 v 4.27937 z m 2.9826,60.79791 -2.9826,0.79919 v -43.57185 l 2.9826,-2.22562 z m 53.17894,1.18244 -4.27938,1.14666 v -91.42305 l 2.07485,-2.76048 13.22716,-16.90105 q 17.24719,3.02964 34.49437,5.79992 v 16.20976 l -14.00523,3.75269 v -6.87294 l -17.37686,-2.86521 -4.40906,5.59046 v 24.50916 q 7.26198,-2.85359 9.07747,-9.17556 1.81549,-6.45165 1.81549,-14.10266 v 1.29678 q 0,6.22455 1.68582,11.73802 1.68581,5.3838 9.07746,4.44065 -7.39165,3.018 -9.07746,9.4349 -1.68582,6.41692 -1.68582,12.51179 v 1.29678 q 0,-7.52133 -1.81549,-12.87039 -1.81549,-5.47873 -9.07747,-4.57031 v 45.77636 l -3.63098,0.97292 v 7.13229 l -2.85292,0.76443 v 5.31681 l -3.24195,0.86868 z m 14.13491,-19.21913 -3.11228,0.83394 v -44.47958 q 1.94517,-0.13218 3.11228,0.46284 z m -3.11228,-46.2392 v -22.82336 l 3.11228,-3.94621 v 24.63884 q -1.16711,1.22047 -3.11228,2.13073 z m 86.63567,39.29087 -4.27937,1.14664 v -22.95302 l -20.35946,14.27342 q -7.65101,-5.7306 -15.30202,-11.20185 v -53.29768 l 14.00524,-3.7527 v 47.46217 l 4.40905,3.22766 17.24719,-12.01302 v -44.47958 l 14.13491,-3.78743 v 67.30292 l -3.63099,0.97292 v 7.13229 l -2.98259,0.79918 v 5.31681 l -3.24196,0.86868 z m -21.52656,-26.78119 -3.11227,-2.40801 v -46.94346 l 3.11227,-0.83393 z m 54.47568,17.9525 -4.27937,1.14665 V 100.24262 l 14.00523,-3.752683 v 90.255933 l -3.63099,0.97292 v 7.13229 l -2.85291,0.76444 v 5.31681 l -3.24196,0.86868 z m 14.13491,-19.21913 -3.11227,0.83393 V 96.142467 l 3.11227,-0.83393 z M 63.654828,415.5448 59.375452,416.69146 V 311.00383 l 14.13491,-3.78744 v 7.52133 l 20.359459,-14.27341 15.302019,11.20185 v 39.55181 l -34.494375,24.2854 -1.167103,-0.85438 v 22.69366 l -3.630986,0.97292 v 7.26198 l -2.982596,0.79918 v 5.18712 l -3.241952,0.86868 z M 74.807142,312.57475 v -5.70583 l 2.982596,-0.79918 v 4.27938 z m 2.982596,83.62125 -2.982596,0.79918 V 376.7654 l 2.982596,-2.22564 z m 0,-39.94085 -2.982596,-2.44277 v -23.21237 l 2.982596,-2.22564 z m 0,1.68582 17.376863,-12.17745 v -24.50916 l -4.409054,-3.35733 -17.247185,12.1427 v 24.63883 z m 52.919492,16.68364 -4.27937,1.14666 V 270.08364 l 14.00523,-3.7527 v 90.25594 l -3.63099,0.97294 v 7.13229 l -2.85291,0.76443 v 5.3168 l -3.24196,0.86868 z m 14.13491,-19.21913 -3.11227,0.83393 v -90.25594 l 3.11227,-0.83393 z m 57.977,-0.1032 -4.27938,1.14666 v -22.95302 l -20.35946,14.27341 q -7.651,-5.7306 -15.30201,-11.20185 v -53.29769 l 14.00523,-3.75268 v 47.46217 l 4.40906,3.22766 17.24718,-12.01302 v -44.47958 l 14.13491,-3.78744 v 67.30292 l -3.63098,0.97292 v 7.1323 l -2.9826,0.79919 v 5.3168 l -3.24195,0.86867 z m -21.52656,-26.78117 -3.11228,-2.40802 v -46.94346 l 3.11228,-0.83393 z m 53.43825,41.18348 -4.14969,1.11191 v -45.38733 l 14.00523,-3.75268 v 6.87293 l 17.24718,2.89996 4.40906,-5.59044 v -2.85292 l -1.16711,1.47982 -34.49436,-5.79992 v -39.94085 l 34.49436,-24.15572 1.29679,0.94932 14.00523,-3.75269 v 75.99135 l -15.30202,19.66153 q -4.40905,-0.89345 -20.48913,-3.45774 v 7.39166 l -3.63099,0.97292 v 7.39165 l -2.98259,0.79918 v 5.18712 l -3.24196,0.86868 z m 14.26459,-19.38355 -3.11227,0.83393 v -5.83551 l 3.11227,0.59253 z m 0,-45.12797 -3.11227,-0.59253 V 284.7598 l 3.11227,-2.26039 z m 0,22.82334 -3.11227,-0.46285 v -4.92775 l 3.11227,0.46285 z m 12.83813,-19.39037 4.40906,-5.59046 v -27.62143 l -4.40906,-3.35733 -17.24718,12.1427 v 21.65625 z m 41.63739,19.70667 -4.27937,1.14666 v -82.73461 l 14.13491,-3.78744 v 67.30292 l -3.76067,1.00767 v 7.1323 l -2.85292,0.76444 v 5.3168 l -3.24195,0.86867 z m 9.85554,-91.08123 -14.13491,3.78744 v -17.24718 l 14.13491,-3.78744 z m 4.27937,-1.14665 -3.11227,0.83393 v -17.24718 l 3.11227,-0.83393 z m 0,73.00876 -3.11227,0.83393 V 242.6446 l 3.11227,-0.83393 z m 23.09358,9.24378 -4.27938,1.14666 v -82.73461 l 14.13491,-3.78744 v 7.52133 l 20.35946,-14.27341 15.30201,11.20185 v 39.0331 l -3.63098,0.97292 v 7.26197 l -2.9826,0.79918 v 5.18713 l -3.24195,0.86868 v 3.11228 l -4.1497,1.11191 v -48.88863 l -4.40906,-3.22766 -17.24718,12.1427 v 44.47958 l -3.63099,0.97292 v 7.13229 l -2.98259,0.79918 v 5.3168 l -3.24195,0.86868 z m 11.15231,-80.01703 v -5.70583 l 2.9826,-0.79919 v 4.27937 z m 2.9826,60.7979 -2.9826,0.79919 v -43.57182 l 2.9826,-2.22565 z m 52.2712,1.42567 -4.27937,1.14666 V 268.3833 l 14.00523,-3.75268 v 3.76065 l 16.08008,-4.30864 5.70584,-7.36439 v -6.61359 l -35.79115,9.59021 v -26.71368 l 13.87555,-17.72317 35.92083,-9.62496 v 17.89557 l -14.00523,3.75269 v -3.89034 l -16.08008,4.30865 -5.70584,7.36438 v 6.74326 l 35.79115,-9.59021 v 26.71369 l -14.00523,17.75792 -25.41691,6.81044 v 7.1323 l -2.85291,0.76444 v 5.44647 l -3.24196,0.86868 z m 14.13492,-34.52114 -3.11228,0.83394 v -2.59357 l 3.11228,-0.83393 z m 0,-26.58401 -3.11228,0.83393 v -5.05744 l 3.11228,-4.07589 z"
       id="text8"
       style="font-size:96px;line-height:0.75;font-family:Hypergame;-inkscape-font-specification:'Hypergame, Normal';text-align:center;letter-spacing:5px;word-spacing:0px;text-anchor:middle;white-space:pre;display:none;fill:#ffffff;stroke-width:0"
       aria-label="sinful&#10;plugins" />
    <path
       id="text1"
       style="font-size:96px;line-height:0.75;font-family:Elisa;-inkscape-font-specification:'Elisa, Normal';text-align:center;letter-spacing:5px;word-spacing:0px;text-anchor:middle;white-space:pre;display:inline;fill:#ffffff;stroke-width:0;fill-opacity:1"
       d="m 169.01172,170.37984 v 14.50586 l 14.50586,-3.88683 v -14.50586 z m 133.03125,-35.64562 c -5.98258,1.60303 -11.10563,5.10677 -15.36719,10.51021 -4.17961,5.29953 -6.31058,10.95051 -6.39258,16.95507 l -6.88281,1.84424 v 14.50586 l 6.88281,-1.84424 v 49.91016 l 14.50586,-3.88684 v -49.91016 l 27.91602,-7.48007 v 49.04883 L 342.25,209.15023 c 11.14563,-2.98646 20.8575,-9.31657 29.13477,-18.99219 v 11.18555 l 14.50585,-3.88683 v -63.55469 l -14.50585,3.88683 v 19.91602 c 0,8.0314 -2.86875,15.68235 -8.60547,22.95622 -5.65477,7.16996 -12.49789,11.83122 -20.5293,13.98323 l -5.03906,1.35021 v -49.04883 l -9.26953,2.48377 -5.23633,1.40307 -27.91602,7.48007 c 0.082,-1.98884 0.81969,-3.86548 2.21289,-5.632 1.39321,-1.76651 3.07415,-2.91356 5.04102,-3.44058 l 8.72656,-2.33827 V 132.39595 Z M 402.25,107.88383 v 86.05078 l 14.50586,-3.88683 V 103.997 Z M 169.01172,192.0146 v 0.12305 l -77.824224,20.85294 v 14.01367 c 0,6.96601 2.457813,12.29151 7.375,15.97309 4.999144,3.65963 11.022344,4.54462 18.070314,2.65613 l 23.11133,-6.19267 c -0.0819,2.89031 -1.18758,5.64439 -3.31836,8.26416 -2.13078,2.53782 -4.63164,4.19221 -7.5,4.96078 l -35.2793,9.45306 v 14.50586 l 35.2793,-9.45306 c 6.96601,-1.86653 12.95008,-5.92972 17.94922,-12.18642 4.99914,-6.33866 7.49805,-13.03145 7.49805,-20.07942 v -13.89062 l -37.74024,10.11247 c -2.95031,0.79053 -5.49031,0.48682 -7.62109,-0.90911 -2.04883,-1.49985 -3.15445,-3.70251 -3.31836,-6.6089 l 63.31836,-16.9661 v 49.78711 l 14.50586,-3.88683 v -64.41602 z m 31.11133,-8.33626 v 64.41602 l 14.50586,-3.88683 v -49.91016 l 17.21093,-4.61165 c 4.67133,-1.25168 8.6457,-0.63567 11.92383,1.84604 3.36008,2.37778 5.03906,5.90228 5.03906,10.57361 v 32.94531 l 14.50586,-3.88683 v -32.94531 c 0,-8.68703 -3.07226,-15.2803 -9.21875,-19.77984 -6.14648,-4.49954 -13.56297,-5.58653 -22.25,-3.25884 z m -84.58985,93.22829 v 86.05079 l 14.50391,-3.88632 v -86.05079 z m 188.60352,-50.53616 v 14.50586 l 14.50586,-3.88684 V 222.48363 Z M 37.33984,319.49324 V 408.003 l 14.503907,-3.88631 v -57.03906 c 0,-4.67133 1.639844,-9.08509 4.917968,-13.24159 3.360077,-4.2604 7.375548,-7.01728 12.046876,-8.26896 l 17.210937,-4.61166 v 18.43945 c 0,4.67133 -1.680938,9.09611 -5.041015,13.27457 -3.278125,4.15649 -7.2525,6.90232 -11.923828,8.236 l -8.728516,2.33879 v 14.50586 l 8.851562,-2.37176 c 5.654765,-1.59719 10.858047,-4.42575 15.611328,-8.48579 4.835233,-4.082 8.647188,-8.91536 11.433594,-14.49721 2.868356,-5.60381 4.302737,-11.23253 4.302737,-16.88729 v -32.94531 l -31.716799,8.49849 c -6.146484,1.64694 -11.801798,4.84322 -16.964844,9.58673 v -5.04102 z m 109.18164,-29.25513 v 63.55469 l 19.54493,-5.23705 c 11.14562,-2.98646 20.85749,-9.31656 29.13476,-18.99218 v 11.18555 l 14.50586,-3.88684 v -63.55469 l -14.50586,3.88684 v 19.91602 c 0,8.03141 -2.86875,15.68235 -8.60547,22.95622 -5.65476,7.16994 -12.49788,11.83121 -20.52929,13.98322 l -5.03907,1.35022 v -49.04883 z m 110.64649,-29.64764 c -9.01485,2.49753 -16.71899,7.80038 -23.11133,15.90556 -6.31039,8.0832 -9.46484,16.58953 -9.46484,25.52242 v 31.7168 l 31.71484,-8.49796 c 5.90063,-1.58107 11.35047,-4.59902 16.34961,-9.05275 -1.14735,5.55243 -3.81062,10.56918 -7.99023,15.04918 -4.17961,4.56195 -9.01501,7.57767 -14.50586,9.04894 L 78.175777,386.36574 V 400.8716 L 250.16016,354.78852 c 10.40804,-2.78883 19.2589,-8.84713 26.55273,-18.17728 7.37578,-9.27017 11.06445,-19.07026 11.06445,-29.39635 v -40.26953 l 16.35938,-4.42058 v 49.89649 l 14.50586,-3.88684 v -64.41602 l -8.78711,2.3545 -5.71875,1.53234 -16.35938,4.38348 -14.50586,3.88683 z m 78.08008,-20.92149 V 304.085 l 14.50586,-3.88683 v -49.91016 l 17.21093,-4.61166 c 4.67133,-1.25168 8.64571,-0.63567 11.92383,1.84603 3.36008,2.3778 5.04102,5.90176 5.04102,10.57309 v 32.94532 l 9.21679,-2.46963 5.28907,-1.4172 50.77929,-13.60627 c 6.96601,-1.86655 12.94813,-5.92921 17.94727,-12.18592 4.99914,-6.33865 7.49805,-13.03143 7.49805,-20.0794 v -13.89063 l -37.73828,10.11194 c -2.95032,0.79053 -5.49032,0.48683 -7.6211,-0.9091 -2.04883,-1.49985 -3.1564,-3.70198 -3.32031,-6.60837 l 46.22265,-12.38532 v -14.50586 l -60.72851,16.27215 v 14.01367 c 0,6.96601 2.45976,12.29099 7.37695,15.97258 4.99914,3.65962 11.02234,4.54461 18.07032,2.65611 l 23.11132,-6.19266 c -0.082,2.89033 -1.18953,5.6449 -3.32031,8.26467 -2.13078,2.53781 -4.62969,4.19171 -7.49805,4.96028 l -50.77929,13.60627 v -18.43946 c 0,-8.68703 -3.07423,-15.27977 -9.22071,-19.77932 -6.14649,-4.49954 -13.56297,-5.58651 -22.25,-3.25883 z m -61.97657,31.19837 v 18.35351 c 0,4.67133 -1.67899,9.13669 -5.03906,13.39709 -3.27813,4.1565 -7.25445,6.8618 -11.92578,8.11348 l -17.20898,4.61113 v -17.21094 c 0,-4.99914 1.76116,-9.73111 5.28515,-14.19935 3.52399,-4.46823 7.78602,-7.37337 12.78516,-8.71289 z" />
  </g>
</svg>
