<?xml version="1.0" encoding="UTF-8" standalone="no"?>
<!-- Created with Inkscape (http://www.inkscape.org/) -->

<svg
   width="512"
   height="512"
   viewBox="0 0 512 512"
   version="1.1"
   id="svg1"
   inkscape:version="1.4.2 (f4327f4, 2025-05-13)"
   sodipodi:docname="sinfulPlugins.svg"
   inkscape:export-filename="sinfulPlugins.png"
   inkscape:export-xdpi="96"
   inkscape:export-ydpi="96"
   xmlns:inkscape="http://www.inkscape.org/namespaces/inkscape"
   xmlns:sodipodi="http://sodipodi.sourceforge.net/DTD/sodipodi-0.dtd"
   xmlns="http://www.w3.org/2000/svg"
   xmlns:svg="http://www.w3.org/2000/svg">
  <sodipodi:namedview
     id="namedview1"
     pagecolor="#ffffff"
     bordercolor="#000000"
     borderopacity="0.25"
     inkscape:showpageshadow="2"
     inkscape:pageopacity="0.0"
     inkscape:pagecheckerboard="0"
     inkscape:deskcolor="#d1d1d1"
     inkscape:document-units="px"
     inkscape:zoom="1.5647499"
     inkscape:cx="239.01583"
     inkscape:cy="282.15372"
     inkscape:window-width="2560"
     inkscape:window-height="1351"
     inkscape:window-x="2551"
     inkscape:window-y="-9"
     inkscape:window-maximized="1"
     inkscape:current-layer="layer1"
     showguides="false" />
  <defs
     id="defs1">
    <rect
       x="42.818344"
       y="120.78608"
       width="567.50284"
       height="293.97669"
       id="rect21" />
    <rect
       x="13.556929"
       y="157.26038"
       width="516.9709"
       height="218.71846"
       id="rect20" />
    <rect
       x="30.675829"
       y="172.55154"
       width="477.39259"
       height="194.91933"
       id="rect19" />
    <rect
       x="8.308037"
       y="182.77681"
       width="602.01314"
       height="221.1216"
       id="rect18" />
    <rect
       x="37.959401"
       y="187.98942"
       width="793.53225"
       height="284.69551"
       id="rect17" />
    <rect
       x="36.151811"
       y="193.41219"
       width="434.72553"
       height="147.31863"
       id="rect13" />
    <rect
       x="66.88085"
       y="178.95146"
       width="369.20037"
       height="164.49074"
       id="rect12" />
    <rect
       x="67.103375"
       y="198.11473"
       width="414.12369"
       height="148.90559"
       id="rect10" />
    <rect
       x="36"
       y="166.79982"
       width="476"
       height="153.20018"
       id="rect16" />
    <rect
       x="159.13086"
       y="388.5605"
       width="210.89632"
       height="36.427547"
       id="rect11" />
    <rect
       x="-109.92172"
       y="31.314909"
       width="672.31191"
       height="510.62473"
       id="rect9" />
    <rect
       x="38.983866"
       y="140.59755"
       width="434.57424"
       height="246.68479"
       id="rect15" />
    <rect
       x="49.70874"
       y="221.88174"
       width="448.28246"
       height="123.81995"
       id="rect14" />
    <rect
       x="74.133253"
       y="113.7562"
       width="425.62712"
       height="287.58589"
       id="rect7" />
    <rect
       x="58.156257"
       y="283.11233"
       width="419.87539"
       height="166.16073"
       id="rect5" />
    <rect
       x="77.328649"
       y="166.16073"
       width="370.02717"
       height="201.31012"
       id="rect4" />
    <rect
       x="51.516329"
       y="154.54899"
       width="439.24449"
       height="221.42983"
       id="rect3" />
    <rect
       x="30.036748"
       y="126.53779"
       width="472.91901"
       height="285.02956"
       id="rect8" />
    <rect
       x="97.7792"
       y="196.19748"
       width="571.97637"
       height="214.09171"
       id="rect2" />
  </defs>
  <g
     inkscape:label="Sinful Plugins Icon"
     inkscape:groupmode="layer"
     id="layer1"
     style="display:inline">
    <rect
       style="display:inline;fill:#000000;stroke-width:0"
       id="rect1"
       width="512"
       height="512"
       x="0"
       y="0"
       rx="64"
       ry="64" />
    <path
       d="m 98.738178,285.93268 -4.279375,1.14665 v -33.32726 l 14.005237,-3.75269 v 3.76066 l 16.08008,-4.30864 5.70584,-7.36439 v -6.61359 l -35.791159,9.59021 v -26.71368 l 13.875559,-17.72317 35.92083,-9.62496 v 17.89557 l -14.00523,3.75269 v -3.89034 l -16.08009,4.30865 -5.70583,7.36438 v 6.74326 l 35.79115,-9.59021 v 26.71368 l -14.00523,17.75793 -25.41691,6.81043 v 7.13229 l -2.85291,0.76444 v 5.44648 l -3.241963,0.86868 z m 14.134912,-34.52114 -3.11227,0.83393 v -2.59356 l 3.11227,-0.83393 z m 0,-26.58402 -3.11227,0.83394 v -5.05745 l 3.11227,-4.07588 z m 53.56777,42.96428 -4.27938,1.14666 v -82.73461 l 14.13491,-3.78744 v 67.30292 l -3.76066,1.00766 v 7.13229 l -2.85292,0.76443 v 5.31681 l -3.24195,0.86868 z m 9.85553,-91.08123 -14.13491,3.78744 v -17.24718 l 14.13491,-3.78744 z m 4.27938,-1.14666 -3.11228,0.83394 v -17.24718 l 3.11228,-0.83394 z m 0,73.00876 -3.11228,0.83394 v -67.30292 l 3.11228,-0.83394 z m 23.09358,9.24379 -4.27937,1.14665 V 176.2285 l 14.13491,-3.78744 v 7.52132 l 20.35946,-14.2734 15.30201,11.20185 v 39.0331 l -3.63099,0.97292 v 7.26196 l -2.98259,0.79918 v 5.18713 l -3.24195,0.86869 v 3.11227 l -4.1497,1.1119 v -48.88864 l -4.40906,-3.22765 -17.24718,12.1427 v 44.47958 l -3.63099,0.97292 v 7.13229 l -2.98259,0.79919 v 5.31681 l -3.24196,0.86868 z m 11.15232,-80.01705 v -5.70582 l 2.9826,-0.79919 v 4.27937 z m 2.9826,60.79791 -2.9826,0.79919 v -43.57185 l 2.9826,-2.22562 z m 53.17894,1.18244 -4.27938,1.14666 v -91.42305 l 2.07485,-2.76048 13.22716,-16.90105 q 17.24719,3.02964 34.49437,5.79992 v 16.20976 l -14.00523,3.75269 v -6.87294 l -17.37686,-2.86521 -4.40906,5.59046 v 24.50916 q 7.26198,-2.85359 9.07747,-9.17556 1.81549,-6.45165 1.81549,-14.10266 v 1.29678 q 0,6.22455 1.68582,11.73802 1.68581,5.3838 9.07746,4.44065 -7.39165,3.018 -9.07746,9.4349 -1.68582,6.41692 -1.68582,12.51179 v 1.29678 q 0,-7.52133 -1.81549,-12.87039 -1.81549,-5.47873 -9.07747,-4.57031 v 45.77636 l -3.63098,0.97292 v 7.13229 l -2.85292,0.76443 v 5.31681 l -3.24195,0.86868 z m 14.13491,-19.21913 -3.11228,0.83394 v -44.47958 q 1.94517,-0.13218 3.11228,0.46284 z m -3.11228,-46.2392 v -22.82336 l 3.11228,-3.94621 v 24.63884 q -1.16711,1.22047 -3.11228,2.13073 z m 86.63567,39.29087 -4.27937,1.14664 v -22.95302 l -20.35946,14.27342 q -7.65101,-5.7306 -15.30202,-11.20185 v -53.29768 l 14.00524,-3.7527 v 47.46217 l 4.40905,3.22766 17.24719,-12.01302 v -44.47958 l 14.13491,-3.78743 v 67.30292 l -3.63099,0.97292 v 7.13229 l -2.98259,0.79918 v 5.31681 l -3.24196,0.86868 z m -21.52656,-26.78119 -3.11227,-2.40801 v -46.94346 l 3.11227,-0.83393 z m 54.47568,17.9525 -4.27937,1.14665 V 100.24262 l 14.00523,-3.752683 v 90.255933 l -3.63099,0.97292 v 7.13229 l -2.85291,0.76444 v 5.31681 l -3.24196,0.86868 z m 14.13491,-19.21913 -3.11227,0.83393 V 96.142467 l 3.11227,-0.83393 z M 63.654828,415.5448 59.375452,416.69146 V 311.00383 l 14.13491,-3.78744 v 7.52133 l 20.359459,-14.27341 15.302019,11.20185 v 39.55181 l -34.494375,24.2854 -1.167103,-0.85438 v 22.69366 l -3.630986,0.97292 v 7.26198 l -2.982596,0.79918 v 5.18712 l -3.241952,0.86868 z M 74.807142,312.57475 v -5.70583 l 2.982596,-0.79918 v 4.27938 z m 2.982596,83.62125 -2.982596,0.79918 V 376.7654 l 2.982596,-2.22564 z m 0,-39.94085 -2.982596,-2.44277 v -23.21237 l 2.982596,-2.22564 z m 0,1.68582 17.376863,-12.17745 v -24.50916 l -4.409054,-3.35733 -17.247185,12.1427 v 24.63883 z m 52.919492,16.68364 -4.27937,1.14666 V 270.08364 l 14.00523,-3.7527 v 90.25594 l -3.63099,0.97294 v 7.13229 l -2.85291,0.76443 v 5.3168 l -3.24196,0.86868 z m 14.13491,-19.21913 -3.11227,0.83393 v -90.25594 l 3.11227,-0.83393 z m 57.977,-0.1032 -4.27938,1.14666 v -22.95302 l -20.35946,14.27341 q -7.651,-5.7306 -15.30201,-11.20185 v -53.29769 l 14.00523,-3.75268 v 47.46217 l 4.40906,3.22766 17.24718,-12.01302 v -44.47958 l 14.13491,-3.78744 v 67.30292 l -3.63098,0.97292 v 7.1323 l -2.9826,0.79919 v 5.3168 l -3.24195,0.86867 z m -21.52656,-26.78117 -3.11228,-2.40802 v -46.94346 l 3.11228,-0.83393 z m 53.43825,41.18348 -4.14969,1.11191 v -45.38733 l 14.00523,-3.75268 v 6.87293 l 17.24718,2.89996 4.40906,-5.59044 v -2.85292 l -1.16711,1.47982 -34.49436,-5.79992 v -39.94085 l 34.49436,-24.15572 1.29679,0.94932 14.00523,-3.75269 v 75.99135 l -15.30202,19.66153 q -4.40905,-0.89345 -20.48913,-3.45774 v 7.39166 l -3.63099,0.97292 v 7.39165 l -2.98259,0.79918 v 5.18712 l -3.24196,0.86868 z m 14.26459,-19.38355 -3.11227,0.83393 v -5.83551 l 3.11227,0.59253 z m 0,-45.12797 -3.11227,-0.59253 V 284.7598 l 3.11227,-2.26039 z m 0,22.82334 -3.11227,-0.46285 v -4.92775 l 3.11227,0.46285 z m 12.83813,-19.39037 4.40906,-5.59046 v -27.62143 l -4.40906,-3.35733 -17.24718,12.1427 v 21.65625 z m 41.63739,19.70667 -4.27937,1.14666 v -82.73461 l 14.13491,-3.78744 v 67.30292 l -3.76067,1.00767 v 7.1323 l -2.85292,0.76444 v 5.3168 l -3.24195,0.86867 z m 9.85554,-91.08123 -14.13491,3.78744 v -17.24718 l 14.13491,-3.78744 z m 4.27937,-1.14665 -3.11227,0.83393 v -17.24718 l 3.11227,-0.83393 z m 0,73.00876 -3.11227,0.83393 V 242.6446 l 3.11227,-0.83393 z m 23.09358,9.24378 -4.27938,1.14666 v -82.73461 l 14.13491,-3.78744 v 7.52133 l 20.35946,-14.27341 15.30201,11.20185 v 39.0331 l -3.63098,0.97292 v 7.26197 l -2.9826,0.79918 v 5.18713 l -3.24195,0.86868 v 3.11228 l -4.1497,1.11191 v -48.88863 l -4.40906,-3.22766 -17.24718,12.1427 v 44.47958 l -3.63099,0.97292 v 7.13229 l -2.98259,0.79918 v 5.3168 l -3.24195,0.86868 z m 11.15231,-80.01703 v -5.70583 l 2.9826,-0.79919 v 4.27937 z m 2.9826,60.7979 -2.9826,0.79919 v -43.57182 l 2.9826,-2.22565 z m 52.2712,1.42567 -4.27937,1.14666 V 268.3833 l 14.00523,-3.75268 v 3.76065 l 16.08008,-4.30864 5.70584,-7.36439 v -6.61359 l -35.79115,9.59021 v -26.71368 l 13.87555,-17.72317 35.92083,-9.62496 v 17.89557 l -14.00523,3.75269 v -3.89034 l -16.08008,4.30865 -5.70584,7.36438 v 6.74326 l 35.79115,-9.59021 v 26.71369 l -14.00523,17.75792 -25.41691,6.81044 v 7.1323 l -2.85291,0.76444 v 5.44647 l -3.24196,0.86868 z m 14.13492,-34.52114 -3.11228,0.83394 v -2.59357 l 3.11228,-0.83393 z m 0,-26.58401 -3.11228,0.83393 v -5.05744 l 3.11228,-4.07589 z"
       id="text8"
       style="font-size:96px;line-height:0.75;font-family:Hypergame;-inkscape-font-specification:'Hypergame, Normal';text-align:center;letter-spacing:5px;word-spacing:0px;text-anchor:middle;white-space:pre;display:none;fill:#ffffff;stroke-width:0"
       aria-label="sinful&#10;plugins" />
    <path
       id="text1"
       style="font-size:96px;line-height:0.75;font-family:Elisa;-inkscape-font-specification:'Elisa, Normal';text-align:center;letter-spacing:5px;word-spacing:0px;text-anchor:middle;white-space:pre;display:none;fill:#ffffff;fill-opacity:1;stroke-width:0"
       d="m 169.01172,170.37984 v 14.50586 l 14.50586,-3.88683 v -14.50586 z m 133.03125,-35.64562 c -5.98258,1.60303 -11.10563,5.10677 -15.36719,10.51021 -4.17961,5.29953 -6.31058,10.95051 -6.39258,16.95507 l -6.88281,1.84424 v 14.50586 l 6.88281,-1.84424 v 49.91016 l 14.50586,-3.88684 v -49.91016 l 27.91602,-7.48007 v 49.04883 L 342.25,209.15023 c 11.14563,-2.98646 20.8575,-9.31657 29.13477,-18.99219 v 11.18555 l 14.50585,-3.88683 v -63.55469 l -14.50585,3.88683 v 19.91602 c 0,8.0314 -2.86875,15.68235 -8.60547,22.95622 -5.65477,7.16996 -12.49789,11.83122 -20.5293,13.98323 l -5.03906,1.35021 v -49.04883 l -9.26953,2.48377 -5.23633,1.40307 -27.91602,7.48007 c 0.082,-1.98884 0.81969,-3.86548 2.21289,-5.632 1.39321,-1.76651 3.07415,-2.91356 5.04102,-3.44058 l 8.72656,-2.33827 V 132.39595 Z M 402.25,107.88383 v 86.05078 l 14.50586,-3.88683 V 103.997 Z M 169.01172,192.0146 v 0.12305 l -77.824224,20.85294 v 14.01367 c 0,6.96601 2.457813,12.29151 7.375,15.97309 4.999144,3.65963 11.022344,4.54462 18.070314,2.65613 l 23.11133,-6.19267 c -0.0819,2.89031 -1.18758,5.64439 -3.31836,8.26416 -2.13078,2.53782 -4.63164,4.19221 -7.5,4.96078 l -35.2793,9.45306 v 14.50586 l 35.2793,-9.45306 c 6.96601,-1.86653 12.95008,-5.92972 17.94922,-12.18642 4.99914,-6.33866 7.49805,-13.03145 7.49805,-20.07942 v -13.89062 l -37.74024,10.11247 c -2.95031,0.79053 -5.49031,0.48682 -7.62109,-0.90911 -2.04883,-1.49985 -3.15445,-3.70251 -3.31836,-6.6089 l 63.31836,-16.9661 v 49.78711 l 14.50586,-3.88683 v -64.41602 z m 31.11133,-8.33626 v 64.41602 l 14.50586,-3.88683 v -49.91016 l 17.21093,-4.61165 c 4.67133,-1.25168 8.6457,-0.63567 11.92383,1.84604 3.36008,2.37778 5.03906,5.90228 5.03906,10.57361 v 32.94531 l 14.50586,-3.88683 v -32.94531 c 0,-8.68703 -3.07226,-15.2803 -9.21875,-19.77984 -6.14648,-4.49954 -13.56297,-5.58653 -22.25,-3.25884 z m -84.58985,93.22829 v 86.05079 l 14.50391,-3.88632 v -86.05079 z m 188.60352,-50.53616 v 14.50586 l 14.50586,-3.88684 V 222.48363 Z M 37.33984,319.49324 V 408.003 l 14.503907,-3.88631 v -57.03906 c 0,-4.67133 1.639844,-9.08509 4.917968,-13.24159 3.360077,-4.2604 7.375548,-7.01728 12.046876,-8.26896 l 17.210937,-4.61166 v 18.43945 c 0,4.67133 -1.680938,9.09611 -5.041015,13.27457 -3.278125,4.15649 -7.2525,6.90232 -11.923828,8.236 l -8.728516,2.33879 v 14.50586 l 8.851562,-2.37176 c 5.654765,-1.59719 10.858047,-4.42575 15.611328,-8.48579 4.835233,-4.082 8.647188,-8.91536 11.433594,-14.49721 2.868356,-5.60381 4.302737,-11.23253 4.302737,-16.88729 v -32.94531 l -31.716799,8.49849 c -6.146484,1.64694 -11.801798,4.84322 -16.964844,9.58673 v -5.04102 z m 109.18164,-29.25513 v 63.55469 l 19.54493,-5.23705 c 11.14562,-2.98646 20.85749,-9.31656 29.13476,-18.99218 v 11.18555 l 14.50586,-3.88684 v -63.55469 l -14.50586,3.88684 v 19.91602 c 0,8.03141 -2.86875,15.68235 -8.60547,22.95622 -5.65476,7.16994 -12.49788,11.83121 -20.52929,13.98322 l -5.03907,1.35022 v -49.04883 z m 110.64649,-29.64764 c -9.01485,2.49753 -16.71899,7.80038 -23.11133,15.90556 -6.31039,8.0832 -9.46484,16.58953 -9.46484,25.52242 v 31.7168 l 31.71484,-8.49796 c 5.90063,-1.58107 11.35047,-4.59902 16.34961,-9.05275 -1.14735,5.55243 -3.81062,10.56918 -7.99023,15.04918 -4.17961,4.56195 -9.01501,7.57767 -14.50586,9.04894 L 78.175777,386.36574 V 400.8716 L 250.16016,354.78852 c 10.40804,-2.78883 19.2589,-8.84713 26.55273,-18.17728 7.37578,-9.27017 11.06445,-19.07026 11.06445,-29.39635 v -40.26953 l 16.35938,-4.42058 v 49.89649 l 14.50586,-3.88684 v -64.41602 l -8.78711,2.3545 -5.71875,1.53234 -16.35938,4.38348 -14.50586,3.88683 z m 78.08008,-20.92149 V 304.085 l 14.50586,-3.88683 v -49.91016 l 17.21093,-4.61166 c 4.67133,-1.25168 8.64571,-0.63567 11.92383,1.84603 3.36008,2.3778 5.04102,5.90176 5.04102,10.57309 v 32.94532 l 9.21679,-2.46963 5.28907,-1.4172 50.77929,-13.60627 c 6.96601,-1.86655 12.94813,-5.92921 17.94727,-12.18592 4.99914,-6.33865 7.49805,-13.03143 7.49805,-20.0794 v -13.89063 l -37.73828,10.11194 c -2.95032,0.79053 -5.49032,0.48683 -7.6211,-0.9091 -2.04883,-1.49985 -3.1564,-3.70198 -3.32031,-6.60837 l 46.22265,-12.38532 v -14.50586 l -60.72851,16.27215 v 14.01367 c 0,6.96601 2.45976,12.29099 7.37695,15.97258 4.99914,3.65962 11.02234,4.54461 18.07032,2.65611 l 23.11132,-6.19266 c -0.082,2.89033 -1.18953,5.6449 -3.32031,8.26467 -2.13078,2.53781 -4.62969,4.19171 -7.49805,4.96028 l -50.77929,13.60627 v -18.43946 c 0,-8.68703 -3.07423,-15.27977 -9.22071,-19.77932 -6.14649,-4.49954 -13.56297,-5.58651 -22.25,-3.25883 z m -61.97657,31.19837 v 18.35351 c 0,4.67133 -1.67899,9.13669 -5.03906,13.39709 -3.27813,4.1565 -7.25445,6.8618 -11.92578,8.11348 l -17.20898,4.61113 v -17.21094 c 0,-4.99914 1.76116,-9.73111 5.28515,-14.19935 3.52399,-4.46823 7.78602,-7.37337 12.78516,-8.71289 z"
       inkscape:label="Evolved" />
    <path
       id="text2"
       style="display:inline;font-size:96.3456px;line-height:0.75;font-family:'Space Crusaders';-inkscape-font-specification:'Space Crusaders, Normal';text-align:center;letter-spacing:0px;word-spacing:0px;text-anchor:middle;white-space:pre;fill:#ffffff;stroke-width:0"
       d="m 84.607576,209.87266 c -18.81464,5.04137 -28.221496,15.95203 -28.221496,32.73468 0,17.08371 9.406856,23.10683 28.221496,18.06545 l 16.933384,-4.53728 c 3.76293,-1.00828 5.64524,-0.6471 5.64524,1.08384 0,2.03198 -1.88231,3.55078 -5.64524,4.55906 l -33.866744,9.07457 -11.288136,25.60327 45.15488,-12.09921 c 18.81465,-5.04137 28.22151,-16.10327 28.22151,-33.18698 0,-16.78265 -9.40686,-22.65452 -28.22151,-17.61315 l -16.933384,4.53728 c -3.76293,1.00828 -5.64289,0.49523 -5.64289,-1.53674 0,-1.73096 1.87996,-3.10023 5.64289,-4.10851 L 137.27071,218.3379 v 56.44538 l 22.57627,-6.0493 v -79.02164 l -8.75258,2.34525 -13.82369,3.70405 z m 90.537094,-24.25933 v 79.02164 l 22.57626,-6.04929 v -39.51199 l 28.22152,31.95006 22.57861,-6.04992 v -79.02164 l -22.57861,6.04992 v 39.50965 l -28.22152,-31.94772 z m 88.67172,-23.75952 v 79.02164 l 22.57862,-6.04992 v -28.22152 l 22.57861,-6.04992 11.28815,-25.60327 -33.86676,9.07457 v -5.64524 l 38.77616,-10.39004 v 16.93339 c 0,26.34051 11.28918,36.48706 33.86676,30.43742 22.57758,-6.04964 33.86674,-22.24605 33.86674,-48.58656 v -39.50965 l -22.57861,6.04992 v 39.50965 c 0,11.28879 -3.76227,17.94147 -11.28813,19.95802 -7.52586,2.01655 -11.28815,-2.61993 -11.28815,-13.90872 v -39.50965 l -8.31904,2.22908 -14.25957,3.82084 z m 140.99742,-37.78014 v 79.02163 l 39.51198,-10.5872 11.28814,-25.60327 -28.22151,7.56193 V 118.02375 Z M 16.000001,314.95461 v 22.57627 l 39.511987,-10.58722 c 3.762931,-1.00826 5.642898,0.3703 5.642898,4.13324 0,3.76293 -1.879967,6.14664 -5.642898,7.15491 l -39.511987,10.58721 v 45.15723 l 22.578614,-6.04992 v -22.57862 l 16.933373,-4.53729 c 18.814648,-5.04136 28.221508,-16.96877 28.221508,-35.78343 0,-18.81465 -9.40686,-25.70096 -28.221508,-20.65958 z m 75.183145,-20.14527 v 79.02164 l 39.511994,-10.5872 11.28814,-25.60327 -28.22151,7.56193 v -56.44301 z m 51.758574,-13.86866 v 39.50966 c 0,26.34051 11.28918,36.48706 33.86676,30.43741 22.57758,-6.04964 33.86674,-22.24604 33.86674,-48.58655 v -39.50966 l -22.57627,6.04929 v 39.50966 c 0,11.28878 -3.76461,17.94209 -11.29047,19.95863 -7.52586,2.01655 -11.28814,-2.61993 -11.28814,-13.90871 V 274.89075 Z M 252.7251,251.52431 c -22.57758,6.04964 -33.8644,22.24309 -33.8644,48.5836 0,26.3405 11.28682,36.48768 33.8644,30.43804 l 39.51199,-10.58721 v -39.51199 l -22.57861,6.04992 v 16.93336 l -16.93338,4.5373 c -7.52586,2.01654 -11.28813,-2.61994 -11.28813,-13.90873 0,-11.28879 3.76227,-17.94148 11.28813,-19.95803 l 50.29162,-13.4756 v 56.44538 l 22.57861,-6.04991 v -79.02165 l -5.37106,1.43917 -17.20755,4.61074 z m 88.16557,-23.6239 v 79.02165 l 22.57861,-6.04992 v -39.51199 l 28.22151,31.95006 6.39513,-1.71357 16.18349,-4.33635 53.50908,-14.33772 C 486.59314,267.8812 496,256.81697 496,239.73327 c 0,-16.78267 -9.40686,-22.6522 -28.22151,-17.61083 l -16.93337,4.53729 c -3.76293,1.00827 -5.64523,0.49584 -5.64523,-1.53614 0,-1.73095 1.8823,-3.10084 5.64523,-4.10911 l 31.04296,-8.31794 11.29048,-25.60154 -42.33344,11.34321 c -18.81466,5.04137 -28.22151,15.95201 -28.22151,32.73468 0,17.08371 9.40685,23.10448 28.22151,18.06311 l 16.93337,-4.53729 c 3.76293,-1.00828 5.6429,-0.64646 5.6429,1.08448 0,2.03197 -1.87996,3.55248 -5.6429,4.56075 l -53.50908,14.33772 v -56.44302 l -22.57862,6.04992 v 39.50966 l -28.22151,-31.94773 z"
       inkscape:label="Evolved V2" />
    <g
       id="g11"
       inkscape:label="Ascended"
       transform="matrix(1,-0.26794919,0,1,0,62.742562)"
       style="display:none">
      <path
         id="text1-8"
         style="font-size:96px;line-height:0.75;font-family:Elisa;-inkscape-font-specification:'Elisa, Normal';text-align:center;letter-spacing:5px;word-spacing:0px;text-anchor:middle;white-space:pre;display:inline;fill:#ffffff;fill-opacity:1;stroke-width:0"
         d="m 169.01172,152.92383 v 14.50586 h 14.50586 v -14.50586 z m 133.03125,0 c -5.98258,0 -11.10563,2.13102 -15.36719,6.39258 -4.17961,4.17961 -6.31058,9.2596 -6.39258,15.24218 h -6.88281 v 14.50586 h 6.88281 v 49.91016 h 14.50586 v -49.91016 h 27.91602 v 49.04883 H 342.25 c 11.14563,0 20.8575,-3.72782 29.13477,-11.18555 v 11.18555 h 14.50585 v -63.55469 h -14.50585 v 19.91602 c 0,8.0314 -2.86875,14.91367 -8.60547,20.65039 -5.65477,5.65477 -12.49789,8.48242 -20.5293,8.48242 h -5.03906 v -49.04883 h -9.26953 -5.23633 -27.91602 c 0.082,-1.96687 0.81969,-3.64585 2.21289,-5.03906 1.39321,-1.3932 3.07415,-2.08984 5.04102,-2.08984 h 8.72656 v -14.50586 z m 100.20703,0 v 86.05078 h 14.50586 v -86.05078 z m -233.23828,21.63476 v 0.12305 H 91.187496 v 14.01367 c 0,6.96601 2.457813,12.95008 7.375,17.94922 4.999144,4.99914 11.022344,7.49805 18.070314,7.49805 h 23.11133 c -0.0819,2.86836 -1.18758,5.32618 -3.31836,7.375 -2.13078,1.96688 -4.63164,2.95117 -7.5,2.95117 h -35.2793 v 14.50586 h 35.2793 c 6.96601,0 12.95008,-2.45976 17.94922,-7.37695 4.99914,-4.99914 7.49805,-11.02235 7.49805,-18.07032 v -13.89062 h -37.74024 c -2.95031,0 -5.49031,-0.9843 -7.62109,-2.95117 -2.04883,-2.04883 -3.15445,-4.54774 -3.31836,-7.49805 h 63.31836 v 49.78711 h 14.50586 v -64.41602 z m 31.11133,0 v 64.41602 h 14.50586 v -49.91016 h 17.21093 c 4.67133,0 8.6457,1.68094 11.92383,5.04103 3.36008,3.27811 5.03906,7.25249 5.03906,11.92382 v 32.94531 h 14.50586 V 206.0293 c 0,-8.68703 -3.07226,-16.10351 -9.21875,-22.25 -6.14648,-6.14648 -13.56297,-9.22071 -22.25,-9.22071 z m -84.58985,70.5625 v 86.05079 h 14.50391 v -86.05079 z m 188.60352,1e-5 v 14.50586 l 14.50586,-10e-6 V 245.12109 Z M 37.33984,266.75586 v 88.50976 h 14.503907 v -57.03906 c 0,-4.67133 1.639844,-8.6457 4.917968,-11.92383 3.360077,-3.36007 7.375548,-5.04101 12.046876,-5.04101 h 17.210937 v 18.43945 c 0,4.67133 -1.680938,8.6457 -5.041015,11.92383 -3.278125,3.27812 -7.2525,4.95902 -11.923828,5.04102 h -8.728516 v 14.50586 h 8.851562 c 5.654765,-0.082 10.858047,-1.51634 15.611328,-4.30274 4.835233,-2.78641 8.647188,-6.59836 11.433594,-11.43359 2.868356,-4.83524 4.302737,-10.07962 4.302737,-15.73438 V 266.75586 H 68.808591 c -6.146484,0 -11.801798,1.68094 -16.964844,5.04102 v -5.04102 z m 109.18164,0 v 63.55469 h 19.54493 c 11.14562,0 20.85749,-3.72782 29.13476,-11.18555 v 11.18555 h 14.50586 v -63.55469 h -14.50586 v 19.91602 c 0,8.03141 -2.86875,14.91367 -8.60547,20.65039 -5.65476,5.65476 -12.49788,8.48242 -20.52929,8.48242 h -5.03907 v -49.04883 z m 110.64649,0 c -9.01485,0.082 -16.71899,3.32054 -23.11133,9.71289 -6.31039,6.39234 -9.46484,14.05344 -9.46484,22.98633 v 31.7168 h 31.71484 c 5.90063,0 11.35047,-1.55767 16.34961,-4.67188 -1.14735,5.245 -3.81062,9.54813 -7.99023,12.9082 -4.17961,3.44203 -9.01501,5.16211 -14.50586,5.16211 H 78.175777 v 14.50586 H 250.16016 c 10.40804,0 19.2589,-3.68672 26.55273,-11.0625 7.37578,-7.29383 11.06445,-16.10555 11.06445,-26.43164 V 281.3125 l 16.35938,-0.0371 v 49.89649 l 14.50586,-1e-5 v -64.41602 h -8.78711 l -5.71875,1e-5 -16.35938,-1e-5 h -14.50586 z m 78.08008,0 v 64.41602 h 14.50586 v -49.91016 h 17.21093 c 4.67133,0 8.64571,1.68094 11.92383,5.04101 3.36008,3.27813 5.04102,7.2525 5.04102,11.92383 v 32.94532 h 9.21679 5.28907 50.77929 c 6.96601,-10e-6 12.94813,-2.45977 17.94727,-7.37696 4.99914,-4.99914 7.49805,-11.02234 7.49805,-18.07031 v -13.89063 h -37.73828 c -2.95032,0 -5.49032,-0.9843 -7.6211,-2.95117 -2.04883,-2.04883 -3.1564,-4.54773 -3.32031,-7.49804 h 46.22265 v -14.50586 h -60.72851 v 14.01367 c 0,6.96601 2.45976,12.95008 7.37695,17.94922 4.99914,4.99914 11.02234,7.49804 18.07032,7.49804 h 23.11132 c -0.082,2.86836 -1.18953,5.32617 -3.32031,7.375 -2.13078,1.96687 -4.62969,2.95119 -7.49805,2.95118 h -50.77929 v -18.43946 c 0,-8.68703 -3.07423,-16.10351 -9.22071,-22.25 -6.14649,-6.14649 -13.56297,-9.2207 -22.25,-9.2207 z m -61.97657,14.5918 v 18.35351 c 0,4.67133 -1.67899,8.68681 -5.03906,12.04688 -3.27813,3.27812 -7.25445,4.91797 -11.92578,4.91797 h -17.20898 v -17.21094 c 0,-4.99914 1.76116,-9.25921 5.28515,-12.7832 3.52399,-3.52398 7.78602,-5.28711 12.78516,-5.28711 z" />
      <path
         id="text11"
         style="font-size:42.6667px;line-height:0.75;font-family:Elisa;-inkscape-font-specification:'Elisa, Normal';text-align:center;letter-spacing:0px;word-spacing:0px;text-anchor:middle;white-space:pre;display:inline;fill:#ffffff;stroke:#ffffff;stroke-width:0"
         d="m 419.12096,331.17154 v 7.01604 h -5.62013 c -2.81687,0.0265 -5.22182,1.03595 -7.2149,3.02902 -1.9665,1.99309 -2.95058,4.38447 -2.95058,7.1748 v 10.6837 h 10.28411 c 1.99304,0 3.82733,-0.53183 5.5015,-1.5948 v 1.5948 h 4.70412 v -16.17429 l 2.51083,-0.007 v 2.06921 c 0,2.55116 0.62315,4.91724 1.87214,7.09634 1.27558,2.15252 2.99136,3.86649 5.14389,5.14204 2.17908,1.24901 4.54333,1.87397 7.09449,1.87397 h 8.64912 1.45979 8.82616 c 1.99307,0 3.82551,-0.53183 5.49971,-1.59479 v 1.59479 h 4.70409 v -27.90353 h -4.70409 v 17.69791 c 0,1.51474 -0.54361,2.81717 -1.63315,3.90671 -1.06297,1.06297 -2.35183,1.5948 -3.86657,1.5948 h -5.58181 v -5.97959 c 0,-1.48816 0.53183,-2.76346 1.5948,-3.82641 1.08954,-1.08958 2.37843,-1.63496 3.86659,-1.63496 l 2.87028,-0.0401 -0.0401,-4.70229 h -2.83011 c -2.8169,0.0266 -5.22187,1.03595 -7.21493,3.02904 -1.96652,1.99307 -2.95058,4.38446 -2.95058,7.17478 v 5.97959 h -8.64915 c -2.57771,0 -4.79636,-0.91804 -6.65655,-2.75168 -1.83364,-1.8602 -2.75167,-4.07885 -2.75167,-6.65656 v -2.07288 h 10.96286 c -0.2657,1.249 -0.9043,2.29908 -1.91412,3.14947 -1.00981,0.82379 -2.16479,1.23533 -3.46695,1.23533 h -1.27549 v 4.70412 h 1.27549 c 2.81689,0 5.22184,-0.99582 7.21492,-2.98889 1.99306,-1.99309 2.98889,-4.39806 2.98889,-7.21492 v -3.5874 h -19.29813 -1.18973 -2.51081 v -7.01603 z m -118.94774,7.01604 c -2.81686,0.0265 -5.22183,1.03595 -7.21492,3.02902 -1.9665,1.99309 -2.94874,4.38447 -2.94874,7.1748 v 10.6837 h 10.28411 c 1.99307,0 3.82735,-0.53183 5.50152,-1.5948 v 1.5948 h 2.86663 1.83566 14.82946 c 2.25883,0 4.198,-0.79773 5.81903,-2.39219 1.62103,-1.62105 2.43234,-3.57377 2.43234,-5.85919 v -4.50521 h -12.23838 c -0.95668,0 -1.77973,-0.31838 -2.47066,-0.95614 -0.66437,-0.66438 -1.02342,-1.47566 -1.07658,-2.43236 h 17.69792 v 2.03274 c 0,2.55113 0.62498,4.91721 1.87398,7.09631 1.27558,2.15252 2.98952,3.86649 5.14204,5.14205 2.1791,1.24899 4.5452,1.87399 7.09633,1.87399 h 5.97776 v -4.70413 h -5.97776 c -2.57773,0 -4.79817,-0.91803 -6.65841,-2.75168 -1.83361,-1.86018 -2.74981,-4.07883 -2.74981,-6.65654 v -2.03274 h 17.06108 v 2.03274 c 0,2.55113 0.62498,4.91721 1.87398,7.09631 1.27557,2.15252 2.98953,3.86649 5.14205,5.14205 2.1791,1.24899 4.54334,1.87399 7.09449,1.87399 h 9.08892 0.87218 3.83193 v -16.18523 h 5.57998 c 1.51472,0 2.80358,0.54538 3.86657,1.63495 1.08956,1.06296 1.63494,2.35182 1.63494,3.86658 v 10.6837 h 4.70229 v -10.6837 c 0,-2.81689 -0.9958,-5.22187 -2.98889,-7.21493 -1.99306,-1.99308 -4.39803,-2.98889 -7.21491,-2.98889 h -10.28409 v 16.18339 h -9.08892 c -2.57771,0 -4.79635,-0.91803 -6.65656,-2.75168 -1.83365,-1.86018 -2.74984,-4.07883 -2.74984,-6.65654 v -2.07288 h 10.96105 c -0.26576,1.249 -0.9043,2.29908 -1.91412,3.14946 -1.00981,0.82382 -2.16481,1.23534 -3.46695,1.23534 h -1.27549 v 4.70411 h 1.27549 c 2.81687,0 5.22184,-0.9958 7.21492,-2.98888 1.99308,-1.99307 2.98888,-4.39806 2.98888,-7.21493 v -3.58739 h -20.4879 v 0.0383 h -1.6751 v -0.0383 h -20.09011 v 0.0383 h -22.40204 v 4.54537 c 0,2.25881 0.79773,4.19797 2.39218,5.81903 1.62106,1.62101 3.57378,2.43231 5.85917,2.43231 h 7.4941 c -0.0265,0.9301 -0.38565,1.72787 -1.07655,2.39224 -0.69092,0.63777 -1.50041,0.95612 -2.43053,0.95612 h -14.82946 v -16.14507 h -4.70229 v 10.64357 c 0,1.51472 -0.54539,2.81715 -1.63493,3.90672 -1.06299,1.06297 -2.35186,1.59478 -3.86659,1.59478 h -5.57998 v -5.97959 c 0,-1.48815 0.53001,-2.76345 1.59298,-3.82641 1.08954,-1.08956 2.3784,-1.63494 3.86656,-1.63494 l 2.87028,-0.0401 -0.0401,-4.70229 z m 118.94774,4.72601 v 5.95587 c 0,1.51472 -0.54538,2.81717 -1.63493,3.90671 -1.06299,1.06297 -2.35184,1.5948 -3.86657,1.5948 h -5.57997 v -5.97957 c 0,-1.48818 0.53181,-2.76348 1.5948,-3.82645 1.08953,-1.08955 2.37839,-1.63494 3.86654,-1.63494 z" />
    </g>
  </g>
  <g
     inkscape:label="Other Plugin Icons"
     inkscape:groupmode="layer"
     id="g7"
     style="display:none">
    <rect
       style="display:inline;fill:#000000;stroke-width:0"
       id="rect6"
       width="512"
       height="256"
       x="0"
       y="128"
       rx="64"
       ry="64" />
    <path
       d="m 36.000001,191.5391 v -24.14266 h 42.249658 c 20.11889,0 30.178321,10.05944 30.178321,30.17832 0,20.11888 -10.059431,30.17835 -30.178321,30.17835 h -18.107 v 24.14264 H 36.000001 v -48.28531 h 42.249658 c 4.02378,0 6.03566,-2.01189 6.03566,-6.03567 0,-4.02378 -2.01188,-6.03567 -6.03566,-6.03567 z m 104.537729,36.21399 h 52.78974 l -12.07133,24.14266 h -64.86107 v -84.49931 h 24.14266 z m 58.60629,-60.35665 h 24.14267 l 30.17833,84.49931 h -25.65159 l -16.59808,-46.77641 -16.59807,46.77641 H 168.9657 Z M 265.11386,212 263.6653,209.64608 234.93553,167.39643 h 27.34156 l 14.72702,21.96982 15.02881,-21.96982 h 27.40192 l -28.36762,42.43072 -1.81071,2.71606 v 39.35254 h -24.14265 z m 155.89702,-44.60357 -12.07132,24.14266 h -86.78868 v -24.14266 z m -32.46769,30.17832 -12.07132,24.14266 h -54.32099 v -24.14266 z m 0,30.17835 -12.07132,24.14264 H 322.15088 V 227.7531 Z m 7.48425,-36.214 v -24.14266 h 42.24965 c 20.11888,0 30.17833,10.05944 30.17833,30.17832 0,13.51989 -4.52675,22.49292 -13.58026,26.91907 L 476,251.89577 H 445.82167 L 420.1701,215.68176 v 36.21399 h -24.14266 v -48.28532 h 42.24965 c 4.02377,0 6.03567,-2.01189 6.03567,-6.03568 0,-4.02376 -2.0119,-6.03566 -6.03567,-6.03566 z m -257.39095,68.56517 v 84.4993 h -24.14266 v -84.4993 z m 40.49931,42.24964 v 42.24966 h -24.14266 v -84.4993 h 24.14266 l 30.17833,42.24964 v -42.24964 h 24.14266 v 84.4993 h -24.14266 z m 176.12069,-42.24964 -12.07133,24.14266 H 273.9561 v 6.03564 h 36.21399 l -12.07133,24.14266 H 273.9561 v 30.17833 h -24.14266 v -84.4993 z m 0,84.4993 c -11.66894,0 -21.62779,-4.12436 -29.87653,-12.37311 -8.24874,-8.24874 -12.37312,-18.20759 -12.37312,-29.87655 0,-11.66895 4.12438,-21.6278 12.37312,-29.87654 8.24874,-8.24874 18.20759,-12.3731 29.87653,-12.3731 11.66896,0 21.62781,4.12436 29.87655,12.3731 8.24874,8.24874 12.37312,18.20759 12.37312,29.87654 0,11.66896 -4.12438,21.62781 -12.37312,29.87655 -8.24874,8.24874 -18.20759,12.37311 -29.87655,12.37311 z m 0,-24.14266 c 4.98949,0 9.2547,-1.77046 12.79562,-5.31138 3.54093,-3.54093 5.31139,-7.80614 5.31139,-12.79562 0,-4.98948 -1.77046,-9.25468 -5.31139,-12.7956 -3.54092,-3.54093 -7.80613,-5.31139 -12.79562,-5.31139 -4.98948,0 -9.25468,1.77046 -12.7956,5.31139 -3.54092,3.54092 -5.31138,7.80612 -5.31138,12.7956 0,4.9895 1.77046,9.25469 5.31138,12.79562 3.54092,3.54092 7.80612,5.31138 12.7956,5.31138 z"
       id="text10"
       style="font-size:96.3456px;line-height:0.75;font-family:'Space Crusaders';-inkscape-font-specification:'Space Crusaders, Normal';text-align:center;letter-spacing:0px;word-spacing:0px;text-anchor:middle;white-space:pre;display:none;fill:#ffffff;stroke:#ffffff;stroke-width:0"
       aria-label="player&#10;info"
       sodipodi:nodetypes="ccsssccccssscccccccccccccccccccccccccccccccccccccccccccccsscccccccsssccccccccccccccccccccccccccccssssssssssssssssss" />
    <path
       d="M 57.266312,271.94973 H 113.4701 l -10.63315,21.26631 H 35.999999 v -74.43208 h 21.266313 z m 88.095698,-53.16577 -10.63316,21.26631 H 86.879641 v -21.26631 z m 0,26.58289 -10.63316,21.26631 H 86.879641 v -21.26631 z m 0,26.58288 -10.63316,21.26631 H 86.879641 V 271.94973 Z M 173.38037,256 148.07346,218.78396 h 24.0841 l 12.97245,19.35234 13.23828,-19.35234 h 24.13727 l -24.98793,37.37554 24.98793,37.05654 h -23.65878 l -13.87627,-19.246 -12.60029,19.246 h -24.29676 z m 73.90044,-37.21604 v 74.43208 h -21.26632 v -74.43208 z m 44.44659,0 h 69.70762 l -10.63316,21.26631 H 291.7274 c -4.39503,0 -8.15208,1.55953 -11.27114,4.67859 -3.11905,3.11906 -4.67858,6.8761 -4.67858,11.27114 0,4.39504 1.55953,8.15209 4.67858,11.27114 3.11906,3.11906 6.87611,4.67859 11.27114,4.67859 h 31.89947 l -10.63315,21.26631 H 291.7274 c -10.27872,0 -19.05107,-3.63298 -26.31706,-10.89897 -7.26599,-7.26599 -10.89898,-16.03834 -10.89898,-26.31707 0,-10.27872 3.63299,-19.05108 10.89898,-26.31706 7.26599,-7.26599 16.03834,-10.89898 26.31706,-10.89898 z m 69.64717,74.43208 c -10.27872,0 -19.05107,-3.63298 -26.31706,-10.89897 -7.26599,-7.26599 -10.89899,-16.03834 -10.89899,-26.31707 0,-10.27872 3.633,-19.05108 10.89899,-26.31706 7.26599,-7.26599 16.03834,-10.89898 26.31706,-10.89898 10.27872,0 19.05107,3.63299 26.31706,10.89898 7.26599,7.26598 10.89899,16.03834 10.89899,26.31706 0,10.27873 -3.633,19.05108 -10.89899,26.31707 -7.26599,7.26599 -16.03834,10.89897 -26.31706,10.89897 z m 0,-21.26631 c 4.39503,0 8.15209,-1.55953 11.27115,-4.67859 3.11906,-3.11905 4.67859,-6.8761 4.67859,-11.27114 0,-4.39504 -1.55953,-8.15208 -4.67859,-11.27114 -3.11906,-3.11906 -6.87612,-4.67859 -11.27115,-4.67859 -4.39504,0 -8.15209,1.55953 -11.27114,4.67859 -3.11906,3.11906 -4.67859,6.8761 -4.67859,11.27114 0,4.39504 1.55953,8.15209 4.67859,11.27114 3.11905,3.11906 6.8761,4.67859 11.27114,4.67859 z M 428.15079,256 v 37.21604 h -21.26631 v -74.43208 h 21.26631 L 454.73369,256 V 218.78396 H 476 v 74.43208 h -21.26631 z"
       id="text12"
       style="font-size:96.3456px;line-height:0.75;font-family:'Space Crusaders';-inkscape-font-specification:'Space Crusaders, Normal';text-align:center;letter-spacing:0px;word-spacing:0px;text-anchor:middle;white-space:pre;display:none;fill:#ffffff;stroke:#ffffff;stroke-width:0"
       aria-label="lexicon"
       sodipodi:nodetypes="ccccccccccccccccccccccccccccccccccccccccsccsssssccsssssssssssssssssssssssccccccccccc" />
    <path
       d="m 156.25388,211.48312 v -16.67298 h 29.17772 c 13.89415,0 20.84122,6.94708 20.84122,20.84123 0,9.33687 -3.12618,15.53367 -9.37855,18.59038 l 14.58886,18.92383 h -20.84122 l -17.71504,-25.00947 v 25.00947 h -16.67299 v -33.34596 h 29.17772 c 2.77883,0 4.16825,-1.38941 4.16825,-4.16825 0,-2.77882 -1.38942,-4.16824 -4.16825,-4.16824 z m 77.36263,-16.67298 h 16.67299 l 20.84122,58.35544 H 253.41568 L 241.953,220.86167 230.49033,253.16558 h -17.71504 z m 56.64645,0 v 58.35544 h -16.67298 v -58.35543 z m 11.29595,58.35544 v -58.35543 h 29.17773 c 16.67298,0 25.00947,9.72591 25.00947,29.17772 0,19.45181 -8.33649,29.17771 -25.00947,29.17771 z m 16.67299,-41.68245 v 25.00947 h 12.50474 c 5.55766,0 8.33649,-4.16825 8.33649,-12.50474 0,-8.33649 -2.77883,-12.50474 -8.33649,-12.50474 z M 65.177721,258.83441 H 119.9152 l -8.33649,16.67298 H 65.177721 c -3.445749,0 -6.391314,1.22269 -8.836685,3.66807 -2.44537,2.44537 -3.668056,5.39091 -3.668056,8.83667 0,3.44575 1.222686,6.39131 3.668056,8.83669 2.445371,2.44537 5.390936,3.66805 8.836685,3.66805 h 25.009474 l -8.336492,16.67299 H 65.177721 c -8.058612,0 -14.936218,-2.84831 -20.632819,-8.54492 -5.6966,-5.69659 -8.544904,-12.5742 -8.544904,-20.63281 0,-8.05861 2.848304,-14.93622 8.544904,-20.63281 5.696601,-5.6966 12.574207,-8.54491 20.632819,-8.54491 z m 54.604019,58.35544 c -8.05862,0 -14.93622,-2.84831 -20.632823,-8.54491 -5.6966,-5.6966 -8.544905,-12.5742 -8.544905,-20.63282 0,-8.05861 2.848305,-14.93621 8.544905,-20.63281 5.696603,-5.6966 12.574203,-8.5449 20.632823,-8.5449 8.05861,0 14.93621,2.8483 20.63281,8.5449 5.6966,5.6966 8.5449,12.5742 8.5449,20.63281 0,8.05862 -2.8483,14.93622 -8.5449,20.63282 -5.6966,5.6966 -12.5742,8.54491 -20.63281,8.54491 z m 0,-16.67299 c 3.44575,0 6.39131,-1.22268 8.83667,-3.66805 2.44537,-2.44537 3.66806,-5.39094 3.66806,-8.83669 0,-3.44575 -1.22269,-6.3913 -3.66806,-8.83667 -2.44536,-2.44537 -5.39092,-3.66806 -8.83667,-3.66806 -3.44575,0 -6.39132,1.22269 -8.83669,3.66806 -2.44537,2.44537 -3.66806,5.39092 -3.66806,8.83667 0,3.44575 1.22269,6.39132 3.66806,8.83669 2.44537,2.44537 5.39094,3.66805 8.83669,3.66805 z m 52.35316,-12.50474 v 29.17773 h -16.67297 v -58.35544 h 16.67297 l 20.84123,29.17771 v -29.17771 h 16.67299 v 58.35544 h -16.67299 z m 73.36112,29.17773 h -16.67298 v -41.68246 h -32.68889 l 8.33649,-16.67298 h 77.80037 l -8.33649,16.67298 h -28.4385 z m 20.79955,-41.68246 v -16.67298 h 29.17771 c 13.89414,0 20.84123,6.94707 20.84123,20.84122 0,9.33687 -3.12618,15.53367 -9.37856,18.59038 l 14.58887,18.92384 h -20.84123 l -17.71504,-25.00948 v 25.00948 h -16.67298 v -33.34597 h 29.17771 c 2.77883,0 4.16825,-1.38942 4.16825,-4.16825 0,-2.77883 -1.38942,-4.16824 -4.16825,-4.16824 z m 83.99012,41.68246 c -8.05859,0 -14.93621,-2.84831 -20.63281,-8.54491 -5.6966,-5.6966 -8.5449,-12.5742 -8.5449,-20.63282 0,-8.05861 2.8483,-14.93621 8.5449,-20.63281 5.6966,-5.6966 12.57422,-8.5449 20.63281,-8.5449 8.05862,0 14.93622,2.8483 20.63282,8.5449 5.6966,5.6966 8.5449,12.5742 8.5449,20.63281 0,8.05862 -2.8483,14.93622 -8.5449,20.63282 -5.6966,5.6966 -12.57421,8.54491 -20.63282,8.54491 z m 0,-16.67299 c 3.44575,0 6.39132,-1.22268 8.8367,-3.66805 2.44537,-2.44537 3.66805,-5.39094 3.66805,-8.83669 0,-3.44575 -1.22268,-6.3913 -3.66805,-8.83667 -2.44538,-2.44537 -5.39095,-3.66806 -8.8367,-3.66806 -3.44575,0 -6.3913,1.22269 -8.83667,3.66806 -2.44538,2.44537 -3.66806,5.39092 -3.66806,8.83667 0,3.44575 1.22268,6.39132 3.66806,8.83669 2.44538,2.44537 5.39093,3.66805 8.83667,3.66805 z m 52.35317,0 h 20.84123 l -8.33649,16.67299 h -29.17772 v -58.35544 h 16.67298 z m 40.01517,-4.16825 c -13.89415,0 -20.84123,-6.30794 -20.84123,-18.92383 0,-12.39358 6.94708,-18.59037 20.84123,-18.59037 h 31.26184 l -8.33649,16.67298 h -22.92535 c -2.77883,0 -4.16825,0.63913 -4.16825,1.91739 0,1.50057 1.38942,2.25085 4.16825,2.25085 h 12.50473 c 13.89415,0 20.84124,6.1968 20.84124,18.59038 0,12.61589 -6.94709,18.92384 -20.84124,18.92384 H 405.3965 l 8.3365,-16.67299 h 41.42577 c 2.77883,0 4.16825,-0.75028 4.16825,-2.25085 0,-1.27826 -1.38942,-1.9174 -4.16825,-1.9174 z"
       id="text13"
       style="font-size:96.3456px;line-height:0.75;font-family:'Space Crusaders';-inkscape-font-specification:'Space Crusaders, Normal';text-align:center;letter-spacing:0px;word-spacing:0px;text-anchor:middle;white-space:pre;display:none;fill:#ffffff;stroke:#ffffff;stroke-width:0"
       aria-label="raid&#10;controls"
       sodipodi:nodetypes="ccsscccccccsssccccccccccccccccssscccssscsccsssssccsssssssssssssssssssssssccccccccccccccccccccccsscccccccssscsssssssssssssssssscccccccsssccssssssccssss" />
    <path
       d="m 185.54031,240.49575 -4.45525,12.47468 H 163.26408 L 140.98786,190.597 h 17.82098 l 13.36573,35.64196 4.23249,-11.27177 9.13325,-24.37019 13.36573,35.64196 13.36573,-35.64196 h 17.82098 l -22.27622,62.37343 H 189.99555 Z M 250.58688,190.597 v 62.37343 H 232.7659 V 190.597 Z m 12.07371,17.82098 V 190.597 h 31.18672 c 14.85081,0 22.27623,7.42541 22.27623,22.27623 0,14.85082 -7.42542,22.27622 -22.27623,22.27622 h -13.36574 v 17.82098 h -17.82098 v -35.64196 h 31.18672 c 2.97016,0 4.45525,-1.48508 4.45525,-4.45524 0,-2.97016 -1.48509,-4.45525 -4.45525,-4.45525 z M 371.01216,190.597 362.10167,208.41798 H 274.79606 V 190.597 Z m 0,22.27623 -8.91049,17.82097 h -40.09721 v -17.82097 z m 0,22.27622 -8.91049,17.82098 H 322.00446 V 235.14945 Z M 107.28392,259.02957 V 321.403 H 89.462937 V 291.68652 L 80.552447,321.403 H 62.731468 L 53.820983,291.82017 V 321.403 h -17.82098 v -62.37343 h 22.276226 l 13.365729,35.64196 13.36574,-35.64196 z m 24.94938,0 h 17.82098 L 172.3305,321.403 H 153.39571 L 141.14379,286.87485 128.89186,321.403 h -18.93478 z m 60.54677,31.18672 V 321.403 h -17.82098 v -62.37343 h 17.82098 l 22.27623,31.18672 v -31.18672 h 17.82098 V 321.403 H 215.0563 Z m 65.04658,-31.18672 h 17.82098 L 297.92385,321.403 H 278.98906 L 266.73714,286.87485 254.48522,321.403 h -18.9348 z m 78.27865,31.18672 h 17.82098 V 321.403 h -31.18671 c -17.82098,0 -26.73147,-10.39557 -26.73147,-31.18671 0,-20.79115 8.91049,-31.18672 26.73147,-31.18672 h 31.18671 l -8.91049,17.82098 h -22.27622 c -5.94033,0 -8.91049,4.45525 -8.91049,13.36574 0,8.91049 2.97016,13.36573 8.91049,13.36573 h 13.36573 z m 101.36335,-31.18672 -8.91049,17.82098 h -66.12235 v -17.82098 z m -26.02514,22.27623 -8.9105,17.82098 h -40.0972 V 281.3058 Z m 0,22.27622 -8.9105,17.82098 h -40.0972 v -17.82098 z m 5.52449,-26.73147 v -17.82098 h 31.18673 c 14.85081,0 22.27622,7.42541 22.27622,22.27623 0,9.97975 -3.34144,16.60321 -10.0243,19.87039 L 476,321.403 H 453.72377 L 434.78899,294.67153 V 321.403 H 416.968 v -35.64196 h 31.18673 c 2.97016,0 4.45524,-1.48508 4.45524,-4.45524 0,-2.97017 -1.48508,-4.45525 -4.45524,-4.45525 z"
       id="text17"
       style="font-size:96.3456px;line-height:0.75;font-family:'Space Crusaders';-inkscape-font-specification:'Space Crusaders, Normal';text-align:center;letter-spacing:0px;word-spacing:0px;text-anchor:middle;white-space:pre;display:none;fill:#ffffff;stroke:#ffffff;stroke-width:0"
       aria-label="wipe&#10;manager"
       sodipodi:nodetypes="cccccccccccccccccccccsssccccsssccccccccccccccccccccccccccccccccccccccccccccccccccccccccccccsssccssscccccccccccccccccccsscccccccsssc" />
    <path
       d="m 190.23748,222.14447 c 3.57228,-3.57228 5.35842,-7.87527 5.35842,-12.90894 0,-5.03368 -1.78614,-9.33665 -5.35842,-12.90894 -3.57229,-3.57228 -7.87526,-5.35843 -12.90894,-5.35843 -5.03367,0 -9.33666,1.78615 -12.90895,5.35843 -3.57228,3.57229 -5.35842,7.87526 -5.35842,12.90894 0,5.03367 1.78614,9.33666 5.35842,12.90894 3.57229,3.57229 7.87528,5.35843 12.90895,5.35843 5.03368,0 9.33665,-1.78614 12.90894,-5.35843 z m -12.90894,29.71492 c -11.77231,0 -21.81936,-4.1609 -30.14116,-12.4827 -8.3218,-8.32179 -12.48271,-18.36885 -12.48271,-30.14115 0,-11.7723 4.16091,-21.81936 12.48271,-30.14116 8.3218,-8.32179 18.36885,-12.4827 30.14116,-12.4827 11.7723,0 21.81935,4.16091 30.14115,12.4827 8.3218,8.32179 12.48271,18.36886 12.48271,30.14116 0,6.65744 -1.31931,12.74657 -3.95793,18.26737 h 10.04706 l -12.17825,24.35648 z m 93.0418,0 c -11.77231,0 -21.81936,-4.1609 -30.14116,-12.4827 -8.3218,-8.32179 -12.48271,-18.36885 -12.48271,-30.14115 0,-11.7723 4.16091,-21.81936 12.48271,-30.14116 8.3218,-8.32179 18.36885,-12.4827 30.14116,-12.4827 11.77231,0 21.81936,4.16091 30.14115,12.4827 8.3218,8.32179 12.48271,18.36886 12.48271,30.14116 0,11.77231 -4.16091,21.81936 -12.48271,30.14116 -8.32179,8.3218 -18.36884,12.4827 -30.14115,12.48269 z m 0,-24.35649 c 5.03368,0 9.33665,-1.78614 12.90894,-5.35843 3.57228,-3.57228 5.35843,-7.87527 5.35843,-12.90894 0,-5.03368 -1.78615,-9.33665 -5.35843,-12.90894 -3.57229,-3.57228 -7.87526,-5.35843 -12.90894,-5.35843 -5.03367,0 -9.33666,1.78615 -12.90894,5.35843 -3.57229,3.57229 -5.35843,7.87526 -5.35843,12.90894 0,5.03367 1.78614,9.33666 5.35843,12.90894 3.57228,3.57229 7.87527,5.35843 12.90894,5.35843 z m 76.47938,0 h 30.4456 l -12.17824,24.35649 h -42.62386 v -85.24772 h 24.3565 z M 66.445611,260.1406 h 24.35649 l 30.445619,85.24772 H 95.368941 l -16.74508,-47.19071 -16.74509,47.19071 H 35.999999 Z m 87.622489,54.8021 c -20.29708,0 -30.44563,-9.21487 -30.44563,-27.64461 0,-18.10499 10.14855,-27.15749 30.44563,-27.15749 h 45.66842 l -12.17825,24.35649 H 154.0681 c -4.05942,0 -6.08913,0.93367 -6.08913,2.801 0,2.19207 2.02971,3.28812 6.08913,3.28812 h 18.26736 c 20.29707,0 30.44561,9.0525 30.44561,27.1575 0,18.42974 -10.14854,27.64461 -30.44561,27.64461 H 97.979431 l 12.178249,-24.35649 h 62.17778 c 4.05941,0 6.08911,-1.09604 6.08911,-3.28812 0,-1.86734 -2.0297,-2.80101 -6.08911,-2.80101 z m 80.43731,0 c -20.29708,0 -30.44563,-9.21487 -30.44563,-27.64461 0,-18.10499 10.14855,-27.15749 30.44563,-27.15749 h 74.62024 l -12.17825,24.35649 h -62.44199 c -4.05942,0 -6.08913,0.93367 -6.08913,2.801 0,2.19207 2.02971,3.28812 6.08913,3.28812 h 18.26736 c 20.29708,0 30.44561,9.0525 30.44561,27.1575 0,18.42974 -10.14853,27.64461 -30.44561,27.64461 h -74.35603 l 12.17825,-24.35649 h 62.17778 c 4.05941,0 6.08913,-1.09604 6.08913,-3.28812 0,-1.86734 -2.02972,-2.80101 -6.08913,-2.80101 z m 81.16798,-54.8021 v 85.24772 H 291.3169 V 260.1406 Z m 39.45753,54.8021 c -20.29707,0 -30.44561,-9.21487 -30.44561,-27.64461 0,-18.10499 10.14854,-27.15749 30.44561,-27.15749 h 76.68823 l -12.17824,24.35649 h -64.50999 c -4.05941,0 -6.08911,0.93367 -6.08911,2.801 0,2.19207 2.0297,3.28812 6.08911,3.28812 h 18.26738 c 20.29708,0 30.44561,9.0525 30.44561,27.1575 0,18.42974 -10.14853,27.64461 -30.44561,27.64461 h -74.35603 l 12.17825,-24.35649 h 62.17778 c 4.05941,0 6.08912,-1.09604 6.08912,-3.28812 0,-1.86734 -2.02971,-2.80101 -6.08912,-2.80101 z m 93.46802,30.44562 H 424.24245 V 284.49709 H 399.88596 L 412.0642,260.1406 H 476 l -12.17825,24.35649 h -15.22281 z"
       id="text18"
       style="font-size:96.3456px;line-height:0.75;font-family:'Space Crusaders';-inkscape-font-specification:'Space Crusaders, Normal';text-align:center;letter-spacing:0px;word-spacing:0px;text-anchor:middle;white-space:pre;display:none;fill:#ffffff;stroke:#ffffff;stroke-width:0"
       aria-label="QOL&#10;Assist"
       sodipodi:nodetypes="sssssssssssssssscccssssssssssssssssssscccccccccccccccsssccssssssccsssssssccssssssccsssscccccsssccssssssccssssccccccccc" />
    <path
       d="m 159.41935,252.71462 c -9.3408,0 -17.31269,-3.30149 -23.91567,-9.90447 -6.60298,-6.60298 -9.90446,-14.57487 -9.90446,-23.91567 0,-9.3408 3.30148,-17.31269 9.90446,-23.91567 6.60298,-6.60298 14.57487,-9.90447 23.91567,-9.90447 9.34081,0 17.31269,3.30149 23.91567,9.90447 6.60297,6.60298 9.90447,14.57487 9.90447,23.91567 0,9.3408 -3.3015,17.31269 -9.90447,23.91567 -6.60298,6.60298 -14.57486,9.90447 -23.91567,9.90447 z m 0,-19.32579 c 3.994,0 7.40822,-1.41723 10.24267,-4.25168 2.83445,-2.83445 4.25167,-6.24867 4.25167,-10.24267 0,-3.99399 -1.41722,-7.40822 -4.25167,-10.24267 -2.83445,-2.83445 -6.24867,-4.25168 -10.24267,-4.25168 -3.99399,0 -7.40822,1.41723 -10.24267,4.25168 -2.83444,2.83445 -4.25167,6.24868 -4.25167,10.24267 0,3.994 1.41723,7.40822 4.25167,10.24267 2.83445,2.83445 6.24868,4.25168 10.24267,4.25168 z m 118.66038,-48.31449 v 67.64027 h -19.3258 v -32.22576 l -9.66289,32.22576 h -19.3258 l -9.66289,-32.08082 v 32.08082 h -19.3258 v -67.64028 h 24.15724 l 14.49435,38.65159 14.49434,-38.65159 z m 32.41902,33.82014 v 33.82014 h -19.32579 v -67.64028 h 19.32579 l 24.15724,33.82014 v -33.82014 h 19.32579 v 67.64028 h -19.32579 z m 75.90206,-33.82014 v 67.64027 h -19.3258 V 185.07434 Z M 36.000002,293.10553 v -33.82014 h 19.325793 v 33.82014 c 0,9.66289 3.220967,14.49434 9.662897,14.49434 6.44193,0 9.662897,-4.83144 9.662897,-14.49434 v -33.82014 h 19.325789 v 33.82014 c 0,22.54675 -9.662891,33.82013 -28.988686,33.82013 -19.325793,0 -28.98869,-11.27338 -28.98869,-33.82013 z m 99.431208,33.82013 H 116.10542 V 278.61118 H 80.371067 l 9.66289,-19.32579 h 67.138763 l -9.66289,19.32579 h -12.07862 z m 43.43472,-67.64027 v 67.64027 h -19.32579 v -67.64027 z m 32.41903,48.31448 h 24.15723 l -9.66289,19.32579 h -33.82014 v -67.64027 h 19.3258 z m 46.23695,-48.31448 v 67.64027 h -19.32579 v -67.64027 z m 41.55045,67.64027 h -19.32579 v -48.31449 h -19.3258 l 9.6629,-19.32578 h 50.7302 l -9.66289,19.32578 h -12.07862 z m 43.43474,-67.64027 v 67.64027 h -19.32579 v -67.64027 z m 66.23914,0 -9.66289,19.32578 h -43.48304 v -19.32578 z m 0,24.15724 -9.66289,19.32579 h -43.48304 v -19.32579 z m 23.30016,24.15724 -9.66289,19.32579 h -66.7832 v -19.32579 z m 5.30202,-4.83145 c -16.10483,0 -24.15725,-7.31159 -24.15725,-21.93476 0,-14.36552 8.05242,-21.54827 24.15725,-21.54827 h 36.23586 l -9.6629,19.32578 h -26.57296 c -3.22097,0 -4.83146,0.74083 -4.83146,2.22249 0,1.7393 1.61049,2.60897 4.83146,2.60897 h 14.49434 c 16.10483,0 24.15724,7.18275 24.15724,21.54825 0,14.62318 -8.05241,21.93478 -24.15724,21.93478 h -38.65159 l 9.6629,-19.3258 h 28.98869 c 3.22096,0 4.83145,-0.86966 4.83145,-2.60898 0,-1.48163 -1.61049,-2.22246 -4.83145,-2.22246 z"
       id="text19"
       style="font-size:96.3456px;line-height:0.75;font-family:'Space Crusaders';-inkscape-font-specification:'Space Crusaders, Normal';text-align:center;letter-spacing:0px;word-spacing:0px;text-anchor:middle;white-space:pre;fill:#ffffff;stroke:#ffffff;stroke-width:0"
       aria-label="omni&#10;utilities"
       sodipodi:nodetypes="ssssssssssssssssssccccccccccccccccccccccccccccccsccsssccssscccccccccccccccccccccccccccccccccccccccccccccccccccccccsssccssssssccssss" />
  </g>
</svg>
